<svg xmlns="http://www.w3.org/2000/svg" width="37.428" height="37.428" viewBox="0 0 37.428 37.428"><path d="M18.714,0A18.714,18.714,0,1,0,37.428,18.714,18.716,18.716,0,0,0,18.714,0Zm8.545,14.591q.012.276.012.555A12.138,12.138,0,0,1,15.049,27.367h0a12.158,12.158,0,0,1-6.584-1.929A8.735,8.735,0,0,0,9.49,25.5a8.619,8.619,0,0,0,5.335-1.839,4.3,4.3,0,0,1-4.013-2.983,4.281,4.281,0,0,0,1.94-.074,4.3,4.3,0,0,1-3.446-4.21c0-.019,0-.037,0-.055a4.266,4.266,0,0,0,1.945.537,4.3,4.3,0,0,1-1.33-5.734,12.2,12.2,0,0,0,8.854,4.488A4.3,4.3,0,0,1,26.1,11.71a8.615,8.615,0,0,0,2.728-1.043,4.312,4.312,0,0,1-1.889,2.376,8.567,8.567,0,0,0,2.467-.676A8.729,8.729,0,0,1,27.259,14.591Zm0,0" fill="#eb1c23"/></svg>