<svg xmlns="http://www.w3.org/2000/svg" width="37.428" height="37.428" viewBox="0 0 37.428 37.428"><path d="M18.714,0A18.714,18.714,0,1,0,37.428,18.714,18.716,18.716,0,0,0,18.714,0Zm.4,29.61h0a11.2,11.2,0,0,1-5.353-1.363L7.816,29.8,9.4,24a11.2,11.2,0,1,1,9.706,5.608Zm0,0" fill="#eb1c23"/><path d="M143.384,124.469a9.311,9.311,0,0,0-7.89,14.258l.221.352-.941,3.434,3.523-.924.34.2a9.3,9.3,0,0,0,4.738,1.3h0a9.31,9.31,0,0,0,0-18.62Zm5.476,13.307a2.883,2.883,0,0,1-1.889,1.33,3.841,3.841,0,0,1-1.763-.111,16.163,16.163,0,0,1-1.6-.589,12.475,12.475,0,0,1-4.781-4.224,5.442,5.442,0,0,1-1.143-2.894,3.137,3.137,0,0,1,.979-2.334,1.029,1.029,0,0,1,.746-.35c.186,0,.373,0,.536.01s.4-.065.63.48.793,1.937.863,2.077a.516.516,0,0,1,.023.49,7.973,7.973,0,0,1-.7.957c-.124.154-.286.291-.123.571a8.434,8.434,0,0,0,1.557,1.938,7.65,7.65,0,0,0,2.251,1.389c.28.14.443.117.606-.07s.7-.817.886-1.1.373-.233.63-.14,1.633.77,1.912.91.466.21.536.327A2.334,2.334,0,0,1,148.86,137.776Zm0,0" transform="translate(-124.27 -115.37)" fill="#eb1c23"/></svg>