<svg xmlns="http://www.w3.org/2000/svg" width="37.428" height="37.428" viewBox="0 0 37.428 37.428"><path d="M291.325,508.668q-.234.038-.469.07Q291.091,508.706,291.325,508.668Zm0,0" transform="translate(-269.594 -471.484)" fill="#eb1c23"/><path d="M299.563,507.793l-.224.039Zm0,0" transform="translate(-277.458 -470.673)" fill="#eb1c23"/><path d="M278.16,510.34q-.274.031-.55.054Q277.886,510.371,278.16,510.34Zm0,0" transform="translate(-257.316 -473.034)" fill="#eb1c23"/><path d="M286.709,509.738l-.264.033Zm0,0" transform="translate(-265.506 -472.476)" fill="#eb1c23"/><path d="M306.862,506.41l-.2.041Zm0,0" transform="translate(-284.247 -469.391)" fill="#eb1c23"/><path d="M324.644,502.113l-.159.044Zm0,0" transform="translate(-300.764 -465.408)" fill="#eb1c23"/><path d="M319.232,503.543l-.174.045Zm0,0" transform="translate(-295.735 -466.733)" fill="#eb1c23"/><path d="M312.251,505.254l-.184.041Zm0,0" transform="translate(-289.254 -468.319)" fill="#eb1c23"/><path d="M273.776,511.09l-.3.022Zm0,0" transform="translate(-253.489 -473.729)" fill="#eb1c23"/><path d="M37.428,18.714A18.714,18.714,0,1,0,18.714,37.428c.11,0,.219,0,.329,0V22.855H15.022V18.17h4.021V14.722c0-4,2.441-6.175,6.008-6.175a33.1,33.1,0,0,1,3.6.184V12.91H26.2c-1.941,0-2.316.922-2.316,2.276V18.17h4.64l-.6,4.686H23.88V36.7A18.724,18.724,0,0,0,37.428,18.714Zm0,0" fill="#eb1c23"/><path d="M265.477,511.43q-.292.019-.587.029Q265.185,511.449,265.477,511.43Zm0,0" transform="translate(-245.527 -474.044)" fill="#eb1c23"/><path d="M260.815,511.836l-.311.008Zm0,0" transform="translate(-241.461 -474.42)" fill="#eb1c23"/></svg>