<?xml version="1.0" standalone="no"?>
<!DOCTYPE svg PUBLIC "-//W3C//DTD SVG 1.1//EN" "http://www.w3.org/Graphics/SVG/1.1/DTD/svg11.dtd" >
<svg>
<metadata>
Created by FontForge 20090914 at Fri Jan 15 19:42:30 2016
 By www-data
Copyright (c) 2014 by Tarek Atrissi Design. All rights reserved.
</metadata>
<defs>
<font id="OoredooArabic-Light" horiz-adv-x="0" >
  <font-face 
    font-family="OoredooArabic"
    font-weight="300"
    font-stretch="normal"
    units-per-em="1000"
    panose-1="1 0 5 0 0 0 0 2 0 6"
    ascent="800"
    descent="-200"
    bbox="-126 -489 1504 1103"
    underline-thickness="29"
    underline-position="-451"
    unicode-range="U+0020-U+FEFC"
  />
<missing-glyph horiz-adv-x="500" 
d="M62 0v562h375v-562h-375zM125 62h250v438h-250v-438z" />
    <glyph glyph-name="shaddehdamatan" unicode="&#x651;&#x64c;" arabic-form="isolated" 
d="M199 890h19.999v-56c0 -23.333 -4.16699 -39.166 -12.5 -47.499s-22.5 -12.5 -42.5 -12.5c-21.333 0 -37.666 6.66699 -48.999 20c-11.333 -13.333 -27.666 -20 -48.999 -20c-20 0 -34.167 5.16699 -42.5 15.5s-12.5 27.166 -12.5 50.499v50h21v-56
c0 -12.667 2.83301 -22.667 8.5 -30s14.167 -11 25.5 -11c10 0 19 2.33301 27 7s12 15.667 12 33v57h20v-56c0 -14.667 3.66699 -25.167 11 -31.5s16.666 -9.5 27.999 -9.5c13.333 0 22.5 3.83301 27.5 11.5s7.5 17.167 7.5 28.5v57zM133.999 964
c-9.33301 5.33301 -16.999 13.1719 -22.999 23.5049s-9 21.5 -9 33.5c0 18 6.33301 33.333 19 46s28 19 46 19s33.333 -6.33301 46 -19s19 -28 19 -46c0 -16.667 -5.5 -30.334 -16.5 -41.001s-24.167 -18.667 -39.5 -24l-57 -19c-14 -4.66699 -25.333 -7.5 -34 -8.5
s-15.667 0.166992 -21 3.5s-9.83301 9.16602 -13.5 17.499s-7.83398 19.166 -12.501 32.499l-2 5c-3.33301 8 -7.16602 12.5 -11.499 13.5s-14.833 -1.83301 -31.5 -8.5l-8 19c12.667 6 23.167 10 31.5 12s15 2.16699 20 0.5s9 -4.83398 12 -9.50098s5.83301 -10 8.5 -16
l13 -30c5.33301 -12 11.666 -17.833 18.999 -17.5s18 3.16602 32 8.49902zM125 1021.01c0 -11.333 4.16699 -21.166 12.5 -29.499s18.166 -12.5 29.499 -12.5s21.166 4.16699 29.499 12.5s12.5 18.166 12.5 29.499s-4.16699 21.166 -12.5 29.499s-18.166 12.5 -29.499 12.5
s-21.166 -4.16699 -29.499 -12.5s-12.5 -18.166 -12.5 -29.499z" />
    <glyph glyph-name="shaddehkasratan" unicode="&#x651;&#x64d;" arabic-form="isolated" 
d="M207 849l7 -20l-202 -67l-7 18zM207 927l7 -20l-202 -67l-7 18zM189 1080h19.999v-56c0 -23.333 -4.16699 -39.166 -12.5 -47.499s-22.5 -12.5 -42.5 -12.5c-21.333 0 -37.666 6.66699 -48.999 20c-11.333 -13.333 -27.666 -20 -48.999 -20
c-20 0 -34.167 5.16699 -42.5 15.5s-12.5 27.166 -12.5 50.499v50h21v-56c0 -12.667 2.83301 -22.667 8.5 -30s14.167 -11 25.5 -11c10 0 19 2.33301 27 7s12 15.667 12 33v57h20v-56c0 -14.667 3.66699 -25.167 11 -31.5s16.666 -9.5 27.999 -9.5
c13.333 0 22.5 3.83301 27.5 11.5s7.5 17.167 7.5 28.5v57z" />
    <glyph glyph-name="shaddehfatha" unicode="&#x651;&#x64e;" arabic-form="isolated" 
d="M199 890h19.999v-56c0 -23.333 -4.16699 -39.166 -12.5 -47.499s-22.5 -12.5 -42.5 -12.5c-21.333 0 -37.666 6.66699 -48.999 20c-11.333 -13.333 -27.666 -20 -48.999 -20c-20 0 -34.167 5.16699 -42.5 15.5s-12.5 27.166 -12.5 50.499v50h21v-56
c0 -12.667 2.83301 -22.667 8.5 -30s14.167 -11 25.5 -11c10 0 19 2.33301 27 7s12 15.667 12 33v57h20v-56c0 -14.667 3.66699 -25.167 11 -31.5s16.666 -9.5 27.999 -9.5c13.333 0 22.5 3.83301 27.5 11.5s7.5 17.167 7.5 28.5v57zM210.999 1016l7 -20l-202 -67l-7 18z
" />
    <glyph glyph-name="shaddehdamma" unicode="&#x651;&#x64f;" arabic-form="isolated" 
d="M199 890h19.999v-56c0 -23.333 -4.16699 -39.166 -12.5 -47.499s-22.5 -12.5 -42.5 -12.5c-21.333 0 -37.666 6.66699 -48.999 20c-11.333 -13.333 -27.666 -20 -48.999 -20c-20 0 -34.167 5.16699 -42.5 15.5s-12.5 27.166 -12.5 50.499v50h21v-56
c0 -12.667 2.83301 -22.667 8.5 -30s14.167 -11 25.5 -11c10 0 19 2.33301 27 7s12 15.667 12 33v57h20v-56c0 -14.667 3.66699 -25.167 11 -31.5s16.666 -9.5 27.999 -9.5c13.333 0 22.5 3.83301 27.5 11.5s7.5 17.167 7.5 28.5v57zM82.999 1038
c0 18 6.33301 33.335 19 46.002s28 19 46 19s33.333 -6.33301 46 -19s19 -28 19 -46c0 -16.667 -5.5 -30.334 -16.5 -41.001s-24.167 -18.667 -39.5 -24l-132 -43l-7 18l97 33c-9.33301 5.33301 -17 13.166 -23 23.499s-9 21.5 -9 33.5zM105.999 1038
c0 -11.333 4.16699 -21.166 12.5 -29.499s18.166 -12.5 29.499 -12.5s21.166 4.16699 29.499 12.5s12.5 18.166 12.5 29.499s-4.16699 21.166 -12.5 29.499s-18.166 12.5 -29.499 12.5s-21.166 -4.16699 -29.499 -12.5s-12.5 -18.166 -12.5 -29.499z" />
    <glyph glyph-name="shaddehkasra" unicode="&#x651;&#x650;" arabic-form="isolated" 
d="M207 849l7 -20l-202 -67l-7 18zM199 993h19.999v-56c0 -23.333 -4.16699 -39.166 -12.5 -47.499s-22.5 -12.5 -42.5 -12.5c-21.333 0 -37.666 6.66699 -48.999 20c-11.333 -13.333 -27.666 -20 -48.999 -20c-20 0 -34.167 5.16699 -42.5 15.5s-12.5 27.166 -12.5 50.499
v50h21v-56c0 -12.667 2.83301 -22.667 8.5 -30s14.167 -11 25.5 -11c10 0 19 2.33301 27 7s12 15.667 12 33v57h20v-56c0 -14.667 3.66699 -25.167 11 -31.5s16.666 -9.5 27.999 -9.5c13.333 0 22.5 3.83301 27.5 11.5s7.5 17.167 7.5 28.5v57z" />
    <glyph glyph-name="lammeeminitial" unicode="&#xfedf;&#xfee4;" horiz-adv-x="1097" arabic-form="initial" 
d="M183 175c0 -28.667 5.5 -55.667 16.5 -81s25.833 -47.333 44.5 -66s40.667 -33.5 66 -44.5s52.333 -16.5 81 -16.5s55.667 5.5 81 16.5s47.333 25.833 66 44.5s33.5 40.667 44.5 66s16.5 52.333 16.5 81s-5.5 55.667 -16.5 81s-25.833 47.333 -44.5 66
s-40.667 33.5 -66 44.5s-52.333 16.5 -81 16.5s-55.667 -5.5 -81 -16.5s-47.333 -25.833 -66 -44.5s-33.5 -40.667 -44.5 -66s-16.5 -52.333 -16.5 -81zM623 120c15.333 -28 35 -50 59 -66s50.667 -24 80 -24h30v-30h-27c-25.333 0 -52.5 6.66699 -81.5 20
s-53.5 34 -73.5 62c-9.33301 -21.333 -21.166 -40.833 -35.499 -58.5s-31 -33 -50 -46s-39.833 -23 -62.5 -30s-46.334 -10.5 -71.001 -10.5c-49.333 0 -93.333 13.5 -132 40.5s-67.334 61.833 -86.001 104.5c-20 -28 -44.5 -48.667 -73.5 -62s-56.167 -20 -81.5 -20h-27v30
h30c29.333 0 56 8 80 24s43.333 38 58 66c-4 18 -6 36.333 -6 55c0 32.667 6.16699 63.5 18.5 92.5s29.333 54.333 51 76s46.834 38.667 75.501 51s59.667 18.5 93 18.5c32.667 0 63.5 -6.16699 92.5 -18.5s54.333 -29.333 76 -51s38.667 -47 51 -76
s18.5 -59.833 18.5 -92.5c0 -18.667 -2 -37 -6 -55zM985 744h32.001v-558c0 -29.333 -3.33301 -55.5 -10 -78.5s-17.334 -42.5 -32.001 -58.5s-34 -28.167 -58 -36.5s-53 -12.5 -87 -12.5h-48v30h48c56.667 0 96.667 12.667 120 38s35 62.333 35 111v565z" />
    <glyph glyph-name="aleffathatanfina" unicode="&#xfe8e;&#x64b;" horiz-adv-x="295" arabic-form="final" 
d="M112 179c0 -48.667 11.668 -85.667 35.001 -111s63.333 -38 120 -38h37v-30h-37c-34 0 -63 4.16699 -87 12.5s-43.333 20.5 -58 36.5s-25.334 35.5 -32.001 58.5s-10 49.167 -10 78.5v558h32v-565zM207.001 849l7 -20l-202 -67l-7 18zM207.001 927l7 -20l-202 -67l-7 18z
" />
    <glyph glyph-name="aleffathataniso" unicode="&#x627;&#x64b;" horiz-adv-x="212" arabic-form="isolated" 
d="M122 0h-32v744h32v-744zM207 849l7 -20l-202 -67l-7 18zM207 927l7 -20l-202 -67l-7 18z" />
    <glyph glyph-name="lilah" unicode="&#xfedf;&#xfee0;&#x651;&#x670;&#xfeea;" horiz-adv-x="1434" arabic-form="isolated" 
d="M510 140c-9.33301 -20.667 -21.334 -39.6699 -36.001 -57.0029s-31.334 -32.166 -50.001 -44.499s-39.167 -21.833 -61.5 -28.5s-45.5 -10 -69.5 -10c-33.333 0 -64.333 6.16699 -93 18.5s-53.834 29.333 -75.501 51s-38.667 46.834 -51 75.501s-18.5 59.667 -18.5 93
c0 32.667 6.16699 63.5 18.5 92.5s29.333 54.333 51 76s46.834 38.667 75.501 51s59.667 18.5 93 18.5c32.667 0 63.5 -6.16699 92.5 -18.5s54.333 -29.333 76 -51s38.667 -47 51 -76s18.5 -59.833 18.5 -92.5v-12c0 -4 -0.333008 -7.66699 -1 -11
c0 -26 4.33301 -50.333 13 -73s20.334 -42.167 35.001 -58.5s31.834 -29.333 51.501 -39s40.167 -14.5 61.5 -14.5h30v-30h-27c-16.667 0 -34.167 2.66699 -52.5 8s-36 13.833 -53 25.5s-32.5 26.334 -46.5 44.001s-24.667 38.5 -32 62.5zM84.999 237.997
c0 -28.667 5.5 -55.667 16.5 -81s25.833 -47.333 44.5 -66s40.667 -33.5 66 -44.5s52.333 -16.5 81 -16.5s55.667 5.5 81 16.5s47.333 25.833 66 44.5s33.5 40.667 44.5 66s16.5 52.333 16.5 81s-5.5 55.667 -16.5 81s-25.833 47.333 -44.5 66s-40.667 33.5 -66 44.5
s-52.333 16.5 -81 16.5s-55.667 -5.5 -81 -16.5s-47.333 -25.833 -66 -44.5s-33.5 -40.667 -44.5 -66s-16.5 -52.333 -16.5 -81zM1140 29.9971v-30h-41c-16.667 0 -33.5 2.33301 -50.5 7s-33.333 12.167 -49 22.5s-29.834 24 -42.501 41s-22.667 37.5 -30 61.5
c-11.333 -44 -31.833 -77 -61.5 -99s-67.167 -33 -112.5 -33h-57v30h54c28.667 0 52.834 5.16699 72.501 15.5s35.5 24 47.5 41s20.667 36.667 26 59s8 45.5 8 69.5v529h32v-530c0 -26 4.33301 -50.167 13 -72.5s20.334 -41.833 35.001 -58.5s31.667 -29.667 51 -39
s39.666 -14 60.999 -14h44zM1322 743.997h32.001v-558c0 -29.333 -3.33301 -55.5 -10 -78.5s-17.334 -42.5 -32.001 -58.5s-34 -28.167 -58 -36.5s-53 -12.5 -87 -12.5h-48v30h48c56.667 0 96.667 12.667 120 38s35 62.333 35 111v565z" />
    <glyph glyph-name="lamalefmaddaaboveiso" unicode="&#xfedf;&#xfe82;" horiz-adv-x="657" arabic-form="isolated" 
d="M390 0h-314.999v30h218v516h32v-516h65c56.667 0 96.667 12.667 120 38s35 62.333 35 111v565h32v-558c0 -29.333 -3.33301 -55.5 -10 -78.5s-17.334 -42.5 -32.001 -58.5s-34 -28.167 -58 -36.5s-53 -12.5 -87 -12.5zM430.001 565v28.998
c0 15.333 -1.33301 27.5 -4 36.5s-6.16699 15.667 -10.5 20s-9.5 7 -15.5 8s-12.333 1.5 -19 1.5c-12 0 -26.833 -4 -44.5 -12l-56.5 -26.5c-20 -9.66699 -39.667 -18.5 -59 -26.5s-36.333 -12 -51 -12c-25.333 0 -44.833 8 -58.5 24s-20.5 39 -20.5 69v34h31v-34
c0 -24 4 -40.667 12 -50s20.333 -14 37 -14c11.333 0 25.833 3.83301 43.5 11.5s36.167 16.334 55.5 26.001s38.833 18.334 58.5 26.001s37.167 11.5 52.5 11.5c29.333 0 49.833 -8 61.5 -24s17.5 -39 17.5 -69v-29h-30z" />
    <glyph glyph-name="lamalefmaddaabovefina" unicode="&#xfee0;&#xfe82;" horiz-adv-x="772" arabic-form="final" 
d="M343 0h-268v30h218v516h32v-516h66c28.667 0 52.834 5.16699 72.501 15.5s35.5 24 47.5 41s20.667 36.667 26 59s8 45.5 8 69.5v529h32v-530c0 -26 4.33301 -50.167 13 -72.5s20.334 -41.833 35.001 -58.5s31.667 -29.667 51 -39s39.666 -14 60.999 -14h44v-30h-41
c-16.667 -0 -33.5 2.33301 -50.5 7s-33.333 12.167 -49 22.5s-29.834 24 -42.501 41s-22.667 37.5 -30 61.5c-11.333 -44 -31.833 -77 -61.5 -99s-67.167 -33 -112.5 -33h-51zM431 565v28.998c0 15.333 -1.33301 27.5 -4 36.5s-6.16699 15.667 -10.5 20s-9.5 7 -15.5 8
s-12.333 1.5 -19 1.5c-12 0 -26.833 -4 -44.5 -12l-56.5 -26.5c-20 -9.66699 -39.667 -18.5 -59 -26.5s-36.333 -12 -51 -12c-25.333 0 -44.833 8 -58.5 24s-20.5 39 -20.5 69v34h31v-34c0 -24 4 -40.667 12 -50s20.333 -14 37 -14c11.333 0 25.833 3.83301 43.5 11.5
s36.167 16.334 55.5 26.001s38.833 18.334 58.5 26.001s37.167 11.5 52.5 11.5c29.333 0 49.833 -8 61.5 -24s17.5 -39 17.5 -69v-29h-30z" />
    <glyph glyph-name="lamalefhamzaaboveiso" unicode="&#xfedf;&#xfe84;" horiz-adv-x="657" arabic-form="isolated" 
d="M390 0h-314.999v30h218v516h32v-516h65c56.667 0 96.667 12.667 120 38s35 62.333 35 111v565h32v-558c0 -29.333 -3.33301 -55.5 -10 -78.5s-17.334 -42.5 -32.001 -58.5s-34 -28.167 -58 -36.5s-53 -12.5 -87 -12.5zM379.001 606l-168.001 0.00195312v28h49
c-10 12.667 -16 26.5 -18 41.5s-0.666992 28.667 4 41s12.667 22.666 24 30.999s25.666 12.5 42.999 12.5c26.667 0 48 -8.33301 64 -25l-25 -15c-9.33301 8 -19.666 12.667 -30.999 14c-13.333 0.666992 -25.166 -2.83301 -35.499 -10.5s-15.5 -20.5 -15.5 -38.5
c0 -14.667 5.5 -26.834 16.5 -36.501s22.167 -14.5 33.5 -14.5h59v-28z" />
    <glyph glyph-name="lamalefhamzaabovefina" unicode="&#xfee0;&#xfe84;" horiz-adv-x="772" arabic-form="final" 
d="M343 0h-268v30h218v516h32v-516h66c28.667 0 52.834 5.16699 72.501 15.5s35.5 24 47.5 41s20.667 36.667 26 59s8 45.5 8 69.5v529h32v-530c0 -26 4.33301 -50.167 13 -72.5s20.334 -41.833 35.001 -58.5s31.667 -29.667 51 -39s39.666 -14 60.999 -14h44v-30h-41
c-16.667 -0 -33.5 2.33301 -50.5 7s-33.333 12.167 -49 22.5s-29.834 24 -42.501 41s-22.667 37.5 -30 61.5c-11.333 -44 -31.833 -77 -61.5 -99s-67.167 -33 -112.5 -33h-51zM379 606l-168.001 0.00195312v28h49c-10 12.667 -16 26.5 -18 41.5s-0.666992 28.667 4 41
s12.667 22.666 24 30.999s25.666 12.5 42.999 12.5c26.667 0 48 -8.33301 64 -25l-25 -15c-9.33301 8 -19.666 12.667 -30.999 14c-13.333 0.666992 -25.166 -2.83301 -35.499 -10.5s-15.5 -20.5 -15.5 -38.5c0 -14.667 5.5 -26.834 16.5 -36.501s22.167 -14.5 33.5 -14.5
h59v-28z" />
    <glyph glyph-name="lamalefhamzabelowiso" unicode="&#xfedf;&#xfe88;" horiz-adv-x="657" arabic-form="isolated" 
d="M390 0h-314.999v30h218v516h32v-516h65c56.667 0 96.667 12.667 120 38s35 62.333 35 111v565h32v-558c0 -29.333 -3.33301 -55.5 -10 -78.5s-17.334 -42.5 -32.001 -58.5s-34 -28.167 -58 -36.5s-53 -12.5 -87 -12.5zM390.001 -217l-168.001 0.00195312v28h49
c-10 12.667 -16 26.5 -18 41.5s-0.666992 28.667 4 41s12.667 22.666 24 30.999s25.666 12.5 42.999 12.5c26.667 0 48 -8.33301 64 -25l-25 -15c-9.33301 8 -19.666 12.667 -30.999 14c-13.333 0.666992 -25.166 -2.83301 -35.499 -10.5s-15.5 -20.5 -15.5 -38.5
c0 -14.667 5.5 -26.834 16.5 -36.501s22.167 -14.5 33.5 -14.5h59v-28z" />
    <glyph glyph-name="lamalefhamzabelowfina" unicode="&#xfee0;&#xfe88;" horiz-adv-x="772" arabic-form="final" 
d="M343 0h-268v30h218v516h32v-516h66c28.667 0 52.834 5.16699 72.501 15.5s35.5 24 47.5 41s20.667 36.667 26 59s8 45.5 8 69.5v529h32v-530c0 -26 4.33301 -50.167 13 -72.5s20.334 -41.833 35.001 -58.5s31.667 -29.667 51 -39s39.666 -14 60.999 -14h44v-30h-41
c-16.667 -0 -33.5 2.33301 -50.5 7s-33.333 12.167 -49 22.5s-29.834 24 -42.501 41s-22.667 37.5 -30 61.5c-11.333 -44 -31.833 -77 -61.5 -99s-67.167 -33 -112.5 -33h-51zM390 -217l-168.001 0.00195312v28h49c-10 12.667 -16 26.5 -18 41.5s-0.666992 28.667 4 41
s12.667 22.666 24 30.999s25.666 12.5 42.999 12.5c26.667 0 48 -8.33301 64 -25l-25 -15c-9.33301 8 -19.666 12.667 -30.999 14c-13.333 0.666992 -25.166 -2.83301 -35.499 -10.5s-15.5 -20.5 -15.5 -38.5c0 -14.667 5.5 -26.834 16.5 -36.501s22.167 -14.5 33.5 -14.5
h59v-28z" />
    <glyph glyph-name="lamalefiso" unicode="&#xfedf;&#xfe8e;" horiz-adv-x="657" arabic-form="isolated" 
d="M390 0h-314.999v30h218v516h32v-516h65c56.667 0 96.667 12.667 120 38s35 62.333 35 111v565h32v-558c0 -29.333 -3.33301 -55.5 -10 -78.5s-17.334 -42.5 -32.001 -58.5s-34 -28.167 -58 -36.5s-53 -12.5 -87 -12.5z" />
    <glyph glyph-name="lamaleffina" unicode="&#xfee0;&#xfe8e;" horiz-adv-x="772" arabic-form="final" 
d="M343 0h-268v30h218v516h32v-516h66c28.667 0 52.834 5.16699 72.501 15.5s35.5 24 47.5 41s20.667 36.667 26 59s8 45.5 8 69.5v529h32v-530c0 -26 4.33301 -50.167 13 -72.5s20.334 -41.833 35.001 -58.5s31.667 -29.667 51 -39s39.666 -14 60.999 -14h44v-30h-41
c-16.667 -0 -33.5 2.33301 -50.5 7s-33.333 12.167 -49 22.5s-29.834 24 -42.501 41s-22.667 37.5 -30 61.5c-11.333 -44 -31.833 -77 -61.5 -99s-67.167 -33 -112.5 -33h-51z" />
    <glyph glyph-name="shaddahfathatan" unicode="&#x651;&#x64b;" 
d="M199 890h19.999v-56c0 -23.333 -4.16699 -39.166 -12.5 -47.499s-22.5 -12.5 -42.5 -12.5c-21.333 0 -37.666 6.66699 -48.999 20c-11.333 -13.333 -27.666 -20 -48.999 -20c-20 0 -34.167 5.16699 -42.5 15.5s-12.5 27.166 -12.5 50.499v50h21v-56
c0 -12.667 2.83301 -22.667 8.5 -30s14.167 -11 25.5 -11c10 0 19 2.33301 27 7s12 15.667 12 33v57h20v-56c0 -14.667 3.66699 -25.167 11 -31.5s16.666 -9.5 27.999 -9.5c13.333 0 22.5 3.83301 27.5 11.5s7.5 17.167 7.5 28.5v57zM211.999 998l7 -20l-202 -67l-7 18z
M211.999 1076l7 -20l-202 -67l-7 18z" />
    <glyph glyph-name="hamza" unicode="&#x621;" horiz-adv-x="473" arabic-form="isolated" 
d="M373 269c-11.333 15.333 -26.002 26.668 -44.002 34.001s-35.667 11 -53 11c-24 0 -44.5 -3.83301 -61.5 -11.5s-31.167 -17.834 -42.5 -30.501s-19.666 -27.334 -24.999 -44.001s-8 -34 -8 -52c0 -16 4.16699 -32.667 12.5 -50s19.166 -33 32.499 -47
s28.333 -25.667 45 -35s33.667 -14 51 -14h138v-30h-363v30h140c-9.33301 4.66699 -19.333 11.834 -30 21.501s-20.5 21 -29.5 34s-16.5 27.333 -22.5 43s-9 32.167 -9 49.5c0 19.333 3.83301 39 11.5 59s18.834 38 33.501 54s32.834 29.167 54.501 39.5
s46.167 15.5 73.5 15.5c28 0 51.833 -5.5 71.5 -16.5s37.5 -26.5 53.5 -46.5z" />
    <glyph glyph-name="alefmaddaaboveiso" unicode="&#x622;" horiz-adv-x="212" arabic-form="isolated" 
d="M122 0h-32v744h32v-744zM264 759v28.998c0 15.333 -1.33301 27.5 -4 36.5s-6.16699 15.667 -10.5 20s-9.5 7 -15.5 8s-12.333 1.5 -19 1.5c-12 0 -26.833 -4 -44.5 -12l-56.5 -26.5c-20 -9.66699 -39.667 -18.5 -59 -26.5s-36.333 -12 -51 -12
c-25.333 0 -44.833 8 -58.5 24s-20.5 39 -20.5 69v34h31v-34c0 -24 4 -40.667 12 -50s20.333 -14 37 -14c11.333 0 25.833 3.83301 43.5 11.5s36.167 16.334 55.5 26.001s38.833 18.334 58.5 26.001s37.167 11.5 52.5 11.5c29.333 0 49.833 -8 61.5 -24s17.5 -39 17.5 -69
v-29h-30z" />
    <glyph glyph-name="alefhamzaaboveiso" unicode="&#x623;" horiz-adv-x="212" arabic-form="isolated" 
d="M122 0h-32v744h32v-744zM183 798l-168.001 0.00195312v28h49c-10 12.667 -16 26.5 -18 41.5s-0.666992 28.667 4 41s12.667 22.666 24 30.999s25.666 12.5 42.999 12.5c26.667 0 48 -8.33301 64 -25l-25 -15c-9.33301 8 -19.666 12.667 -30.999 14
c-13.333 0.666992 -25.166 -2.83301 -35.499 -10.5s-15.5 -20.5 -15.5 -38.5c0 -14.667 5.5 -26.834 16.5 -36.501s22.167 -14.5 33.5 -14.5h59v-28z" />
    <glyph glyph-name="wawhamzaiso" unicode="&#x624;" horiz-adv-x="550" arabic-form="isolated" 
d="M298 438c-29.333 0 -55.833 -5.16699 -79.5 -15.5s-44 -24.5 -61 -42.5s-30.167 -39.5 -39.5 -64.5s-14 -52.167 -14 -81.5s5.5 -56.5 16.5 -81.5s26.167 -46.5 45.5 -64.5s41.833 -32.167 67.5 -42.5s53.167 -15.5 82.5 -15.5h118v238c0 51.333 -12.333 92.5 -37 123.5
s-57.667 46.5 -99 46.5zM133 -200c11.333 -2.66699 22.832 -4.50293 34.499 -5.50293s23.167 -1.5 34.5 -1.5c32 0 62 5.33301 90 16s52.5 24.834 73.5 42.501s37.667 38 50 61s18.5 46.833 18.5 71.5v16h-118c-33.333 0 -64.666 5.83301 -93.999 17.5s-55 28 -77 49
s-39.333 45.833 -52 74.5s-19 59.667 -19 93s5.5 64.333 16.5 93s26.5 53.5 46.5 74.5s43.833 37.333 71.5 49s58.167 17.5 91.5 17.5c28 0 52.333 -5.66699 73 -17s38 -26.333 52 -45s24.333 -40 31 -64s10 -48.667 10 -74v-201v-74
c0 -35.333 -7.33301 -67.166 -22 -95.499s-34.167 -52.666 -58.5 -72.999s-52.333 -36 -84 -47s-64.5 -16.5 -98.5 -16.5c-12.667 0 -25.667 0.5 -39 1.5s-27.333 3.16699 -42 6.5zM363.565 544.731l-185 -0.000976562v30.7285h53.959
c-11.0117 13.9004 -17.6191 29.0811 -19.8213 45.542c-2.20215 16.4619 -0.734375 31.46 4.4043 44.9941c5.13965 13.5342 13.9492 24.874 26.4287 34.0195c12.4805 9.14551 28.2646 13.7178 47.3516 13.7178c29.3652 0 52.8574 -9.14551 70.4766 -27.4355
l-27.5303 -16.4609c-10.2773 8.7793 -21.6562 13.9004 -34.1367 15.3633c-14.6826 0.731445 -27.7139 -3.10938 -39.0938 -11.5225c-11.3789 -8.41309 -17.0684 -22.4961 -17.0684 -42.249c0 -16.0957 6.05664 -29.4473 18.1699 -40.0557s24.4102 -15.9121 36.8896 -15.9121
h64.9707v-30.7285z" />
    <glyph glyph-name="alefhamzabelowiso" unicode="&#x625;" horiz-adv-x="212" arabic-form="isolated" 
d="M122 0h-32v744h32v-744zM183 -217l-168.001 0.00195312v28h49c-10 12.667 -16 26.5 -18 41.5s-0.666992 28.667 4 41s12.667 22.666 24 30.999s25.666 12.5 42.999 12.5c26.667 0 48 -8.33301 64 -25l-25 -15c-9.33301 8 -19.666 12.667 -30.999 14
c-13.333 0.666992 -25.166 -2.83301 -35.499 -10.5s-15.5 -20.5 -15.5 -38.5c0 -14.667 5.5 -26.834 16.5 -36.501s22.167 -14.5 33.5 -14.5h59v-28z" />
    <glyph glyph-name="hamzakirsehiso" unicode="&#x626;" horiz-adv-x="854" arabic-form="isolated" 
d="M829 350c-15.333 26.667 -35.6699 47.167 -61.0029 61.5s-51.666 21.5 -78.999 21.5c-20.667 0 -38 -3 -52 -9s-24.333 -14.5 -31 -25.5s-9 -24.333 -7 -40s8.66699 -33.167 20 -52.5l94 -159c14.667 -25.333 21.167 -51.333 19.5 -78s-9.66699 -51.167 -24 -73.5
s-34 -40.666 -59 -54.999s-53.5 -21.5 -85.5 -21.5h-280c-37.333 0 -70.166 6.33301 -98.499 19s-52.166 30.834 -71.499 54.501s-33.833 52 -43.5 85s-14.5 70.167 -14.5 111.5v57h32v-57c0 -74.667 16 -133.334 48 -176.001s81.333 -64 148 -64h283
c26 0 48.833 6.33301 68.5 19s35.167 28.167 46.5 46.5s17.833 37.666 19.5 57.999s-2.5 38.5 -12.5 54.5l-108 177c-11.333 18 -17.5 36.5 -18.5 55.5s3 36.5 12 52.5s23 29 42 39s43.167 15 72.5 15c12.667 0 27 -1.83301 43 -5.5s31.667 -9.66699 47 -18
s30 -18.833 44 -31.5s26 -28 36 -46zM337.562 305.734l-185 -0.000976562v30.7285h53.959c-11.0117 13.9004 -17.6191 29.0811 -19.8213 45.542c-2.20215 16.4619 -0.734375 31.46 4.4043 44.9941c5.13965 13.5342 13.9492 24.874 26.4287 34.0195
c12.4805 9.14551 28.2646 13.7178 47.3516 13.7178c29.3652 0 52.8574 -9.14551 70.4766 -27.4355l-27.5303 -16.4609c-10.2773 8.7793 -21.6562 13.9004 -34.1367 15.3633c-14.6826 0.731445 -27.7139 -3.10938 -39.0938 -11.5225
c-11.3789 -8.41309 -17.0684 -22.4961 -17.0684 -42.249c0 -16.0957 6.05664 -29.4473 18.1699 -40.0557s24.4102 -15.9121 36.8896 -15.9121h64.9707v-30.7285z" />
    <glyph glyph-name="alefiso" unicode="&#x627;" horiz-adv-x="232" arabic-form="isolated" 
d="M132 0h-32v744h32v-744z" />
    <glyph glyph-name="behiso" unicode="&#x628;" horiz-adv-x="860" arabic-form="isolated" 
d="M303 0c-37.333 0 -70.1699 6.33301 -98.5029 19s-52.166 30.834 -71.499 54.501s-33.833 52 -43.5 85s-14.5 70.167 -14.5 111.5v138h32v-138c0 -74.667 16 -133.334 48 -176.001s81.333 -64 148 -64h274c66.667 0 116 21.333 148 64s48 101.334 48 176.001v138h32v-138
c0 -41.333 -4.83301 -78.5 -14.5 -111.5s-24.167 -61.333 -43.5 -85s-43.166 -41.834 -71.499 -54.501s-61.166 -19 -98.499 -19h-274zM405.996 -114c0 8 2.83301 14.833 8.5 20.5s12.5 8.5 20.5 8.5s14.833 -2.83301 20.5 -8.5s8.5 -12.5 8.5 -20.5
s-2.83301 -14.833 -8.5 -20.5s-12.5 -8.5 -20.5 -8.5s-14.833 2.83301 -20.5 8.5s-8.5 12.5 -8.5 20.5z" />
    <glyph glyph-name="tehmarboutaiso" unicode="&#x629;" horiz-adv-x="594" arabic-form="isolated" 
d="M55 234c0 33.333 6.33301 64.666 19 93.999s30 55 52 77s47.667 39.333 77 52s60.666 19 93.999 19s64.666 -6.33301 93.999 -19s55 -30 77 -52s39.333 -47.667 52 -77s19 -60.666 19 -93.999s-6.33301 -64.666 -19 -93.999s-30 -55 -52 -77s-47.667 -39.333 -77 -52
s-60.666 -19 -93.999 -19s-64.666 6.33301 -93.999 19s-55 30 -77 52s-39.333 47.667 -52 77s-19 60.666 -19 93.999zM85 234c0 -29.333 5.5 -56.833 16.5 -82.5s26.167 -48.167 45.5 -67.5s41.833 -34.5 67.5 -45.5s53.167 -16.5 82.5 -16.5s56.833 5.5 82.5 16.5
s48.167 26.167 67.5 45.5s34.5 41.833 45.5 67.5s16.5 53.167 16.5 82.5s-5.5 56.833 -16.5 82.5s-26.167 48.167 -45.5 67.5s-41.833 34.5 -67.5 45.5s-53.167 16.5 -82.5 16.5s-56.833 -5.5 -82.5 -16.5s-48.167 -26.167 -67.5 -45.5s-34.5 -41.833 -45.5 -67.5
s-16.5 -53.167 -16.5 -82.5zM206 592c0 8 2.83301 14.833 8.5 20.5s12.5 8.5 20.5 8.5s14.833 -2.83301 20.5 -8.5s8.5 -12.5 8.5 -20.5s-2.83301 -14.833 -8.5 -20.5s-12.5 -8.5 -20.5 -8.5s-14.833 2.83301 -20.5 8.5s-8.5 12.5 -8.5 20.5zM312 592
c0 8 2.83301 14.833 8.5 20.5s12.5 8.5 20.5 8.5s14.833 -2.83301 20.5 -8.5s8.5 -12.5 8.5 -20.5s-2.83301 -14.833 -8.5 -20.5s-12.5 -8.5 -20.5 -8.5s-14.833 2.83301 -20.5 8.5s-8.5 12.5 -8.5 20.5z" />
    <glyph glyph-name="taiso" unicode="&#x62a;" horiz-adv-x="860" arabic-form="isolated" 
d="M303 0c-37.333 0 -70.1699 6.33301 -98.5029 19s-52.166 30.834 -71.499 54.501s-33.833 52 -43.5 85s-14.5 70.167 -14.5 111.5v138h32v-138c0 -74.667 16 -133.334 48 -176.001s81.333 -64 148 -64h274c66.667 0 116 21.333 148 64s48 101.334 48 176.001v138h32v-138
c0 -41.333 -4.83301 -78.5 -14.5 -111.5s-24.167 -61.333 -43.5 -85s-43.166 -41.834 -71.499 -54.501s-61.166 -19 -98.499 -19h-274zM357.996 592c0 8 2.83301 14.833 8.5 20.5s12.5 8.5 20.5 8.5s14.833 -2.83301 20.5 -8.5s8.5 -12.5 8.5 -20.5
s-2.83301 -14.833 -8.5 -20.5s-12.5 -8.5 -20.5 -8.5s-14.833 2.83301 -20.5 8.5s-8.5 12.5 -8.5 20.5zM463.996 592c0 8 2.83301 14.833 8.5 20.5s12.5 8.5 20.5 8.5s14.833 -2.83301 20.5 -8.5s8.5 -12.5 8.5 -20.5s-2.83301 -14.833 -8.5 -20.5s-12.5 -8.5 -20.5 -8.5
s-14.833 2.83301 -20.5 8.5s-8.5 12.5 -8.5 20.5z" />
    <glyph glyph-name="thaiso" unicode="&#x62b;" horiz-adv-x="860" arabic-form="isolated" 
d="M303 0c-37.333 0 -70.1699 6.33301 -98.5029 19s-52.166 30.834 -71.499 54.501s-33.833 52 -43.5 85s-14.5 70.167 -14.5 111.5v138h32v-138c0 -74.667 16 -133.334 48 -176.001s81.333 -64 148 -64h274c66.667 0 116 21.333 148 64s48 101.334 48 176.001v138h32v-138
c0 -41.333 -4.83301 -78.5 -14.5 -111.5s-24.167 -61.333 -43.5 -85s-43.166 -41.834 -71.499 -54.501s-61.166 -19 -98.499 -19h-274zM404.996 679c0 8 2.83301 14.833 8.5 20.5s12.5 8.5 20.5 8.5s14.833 -2.83301 20.5 -8.5s8.5 -12.5 8.5 -20.5
s-2.83301 -14.833 -8.5 -20.5s-12.5 -8.5 -20.5 -8.5s-14.833 2.83301 -20.5 8.5s-8.5 12.5 -8.5 20.5zM351.996 593c0 8 2.83301 14.833 8.5 20.5s12.5 8.5 20.5 8.5s14.833 -2.83301 20.5 -8.5s8.5 -12.5 8.5 -20.5s-2.83301 -14.833 -8.5 -20.5s-12.5 -8.5 -20.5 -8.5
s-14.833 2.83301 -20.5 8.5s-8.5 12.5 -8.5 20.5zM457.996 593c0 8 2.83301 14.833 8.5 20.5s12.5 8.5 20.5 8.5s14.833 -2.83301 20.5 -8.5s8.5 -12.5 8.5 -20.5s-2.83301 -14.833 -8.5 -20.5s-12.5 -8.5 -20.5 -8.5s-14.833 2.83301 -20.5 8.5s-8.5 12.5 -8.5 20.5z" />
    <glyph glyph-name="jeemiso" unicode="&#x62c;" horiz-adv-x="664" arabic-form="isolated" 
d="M336 132c-28.667 0 -55.668 -4.99902 -81.001 -14.999s-47.333 -23.667 -66 -41s-33.5 -38.166 -44.5 -62.499s-16.5 -50.833 -16.5 -79.5s5.5 -54.834 16.5 -78.501s25.833 -43.834 44.5 -60.501s40.667 -29.667 66 -39s52.333 -14 81 -14c71.333 0 126 24 164 72
l23 -21c-21.333 -25.333 -48.333 -45.166 -81 -59.499s-68 -21.5 -106 -21.5c-33.333 0 -64.333 5.33301 -93 16s-53.834 25.834 -75.501 45.501s-38.667 43 -51 70s-18.5 57.167 -18.5 90.5c0 32.667 6.16699 63 18.5 91s29.333 52.167 51 72.5
s46.834 36.166 75.501 47.499s59.667 17 93 17h231v88c0 32.667 -6.16699 63.5 -18.5 92.5s-29.333 54.333 -51 76s-47 38.667 -76 51s-59.833 18.5 -92.5 18.5c-32 0 -61.833 -5.83301 -89.5 -17.5s-52.167 -27.5 -73.5 -47.5l-10 -10l-20 25l15 14
c24 21.333 51.167 38 81.5 50s62.5 18 96.5 18c37.333 0 72.333 -7 105 -21s61.334 -33.333 86.001 -58s44 -53.334 58 -86.001s21 -67.667 21 -105v-118h-263zM339.999 -42.999c0 8 2.83301 14.833 8.5 20.5s12.5 8.5 20.5 8.5s14.833 -2.83301 20.5 -8.5
s8.5 -12.5 8.5 -20.5s-2.83301 -14.833 -8.5 -20.5s-12.5 -8.5 -20.5 -8.5s-14.833 2.83301 -20.5 8.5s-8.5 12.5 -8.5 20.5z" />
    <glyph glyph-name="haaiso" unicode="&#x62d;" horiz-adv-x="664" arabic-form="isolated" 
d="M336 132c-28.667 0 -55.668 -4.99902 -81.001 -14.999s-47.333 -23.667 -66 -41s-33.5 -38.166 -44.5 -62.499s-16.5 -50.833 -16.5 -79.5s5.5 -54.834 16.5 -78.501s25.833 -43.834 44.5 -60.501s40.667 -29.667 66 -39s52.333 -14 81 -14c71.333 0 126 24 164 72
l23 -21c-21.333 -25.333 -48.333 -45.166 -81 -59.499s-68 -21.5 -106 -21.5c-33.333 0 -64.333 5.33301 -93 16s-53.834 25.834 -75.501 45.501s-38.667 43 -51 70s-18.5 57.167 -18.5 90.5c0 32.667 6.16699 63 18.5 91s29.333 52.167 51 72.5
s46.834 36.166 75.501 47.499s59.667 17 93 17h231v88c0 32.667 -6.16699 63.5 -18.5 92.5s-29.333 54.333 -51 76s-47 38.667 -76 51s-59.833 18.5 -92.5 18.5c-32 0 -61.833 -5.83301 -89.5 -17.5s-52.167 -27.5 -73.5 -47.5l-10 -10l-20 25l15 14
c24 21.333 51.167 38 81.5 50s62.5 18 96.5 18c37.333 0 72.333 -7 105 -21s61.334 -33.333 86.001 -58s44 -53.334 58 -86.001s21 -67.667 21 -105v-118h-263z" />
    <glyph glyph-name="khaiso" unicode="&#x62e;" horiz-adv-x="664" arabic-form="isolated" 
d="M336 132c-28.667 0 -55.668 -4.99902 -81.001 -14.999s-47.333 -23.667 -66 -41s-33.5 -38.166 -44.5 -62.499s-16.5 -50.833 -16.5 -79.5s5.5 -54.834 16.5 -78.501s25.833 -43.834 44.5 -60.501s40.667 -29.667 66 -39s52.333 -14 81 -14c71.333 0 126 24 164 72
l23 -21c-21.333 -25.333 -48.333 -45.166 -81 -59.499s-68 -21.5 -106 -21.5c-33.333 0 -64.333 5.33301 -93 16s-53.834 25.834 -75.501 45.501s-38.667 43 -51 70s-18.5 57.167 -18.5 90.5c0 32.667 6.16699 63 18.5 91s29.333 52.167 51 72.5
s46.834 36.166 75.501 47.499s59.667 17 93 17h231v88c0 32.667 -6.16699 63.5 -18.5 92.5s-29.333 54.333 -51 76s-47 38.667 -76 51s-59.833 18.5 -92.5 18.5c-32 0 -61.833 -5.83301 -89.5 -17.5s-52.167 -27.5 -73.5 -47.5l-10 -10l-20 25l15 14
c24 21.333 51.167 38 81.5 50s62.5 18 96.5 18c37.333 0 72.333 -7 105 -21s61.334 -33.333 86.001 -58s44 -53.334 58 -86.001s21 -67.667 21 -105v-118h-263zM317.999 640.001c0 8 2.83301 14.833 8.5 20.5s12.5 8.5 20.5 8.5s14.833 -2.83301 20.5 -8.5
s8.5 -12.5 8.5 -20.5s-2.83301 -14.833 -8.5 -20.5s-12.5 -8.5 -20.5 -8.5s-14.833 2.83301 -20.5 8.5s-8.5 12.5 -8.5 20.5z" />
    <glyph glyph-name="daliso" unicode="&#x62f;" horiz-adv-x="552" arabic-form="isolated" 
d="M497 0h-412.001v30h380v179c0 32.667 -6.16699 63 -18.5 91s-29.333 52 -51 72s-47 35.667 -76 47s-59.833 17 -92.5 17h-17v32h17c37.333 0 72.333 -6.5 105 -19.5s61.334 -31 86.001 -54s44 -50.333 58 -82s21 -66.167 21 -103.5v-209z" />
    <glyph glyph-name="zaliso" unicode="&#x630;" horiz-adv-x="552" arabic-form="isolated" 
d="M497 0h-412.001v30h380v179c0 32.667 -6.16699 63 -18.5 91s-29.333 52 -51 72s-47 35.667 -76 47s-59.833 17 -92.5 17h-17v32h17c37.333 0 72.333 -6.5 105 -19.5s61.334 -31 86.001 -54s44 -50.333 58 -82s21 -66.167 21 -103.5v-209zM218.999 593
c0 8 2.83301 14.833 8.5 20.5s12.5 8.5 20.5 8.5s14.833 -2.83301 20.5 -8.5s8.5 -12.5 8.5 -20.5s-2.83301 -14.833 -8.5 -20.5s-12.5 -8.5 -20.5 -8.5s-14.833 2.83301 -20.5 8.5s-8.5 12.5 -8.5 20.5z" />
    <glyph glyph-name="raiso" unicode="&#x631;" horiz-adv-x="300" arabic-form="isolated" 
d="M-107 -199c22.667 -4.66699 45.6699 -7 69.0029 -7c34.667 0 66.167 5.66699 94.5 17s52.666 26.833 72.999 46.5s36.166 42.834 47.499 69.501s17 55 17 85v396h32v-394c0 -39.333 -6.83301 -74.5 -20.5 -105.5s-32.334 -57.333 -56.001 -79
s-51.5 -38.334 -83.5 -50.001s-66.333 -17.5 -103 -17.5c-26 0 -53.333 3 -82 9z" />
    <glyph glyph-name="zaiso" unicode="&#x632;" horiz-adv-x="300" arabic-form="isolated" 
d="M-107 -199c22.667 -4.66699 45.6699 -7 69.0029 -7c34.667 0 66.167 5.66699 94.5 17s52.666 26.833 72.999 46.5s36.166 42.834 47.499 69.501s17 55 17 85v396h32v-394c0 -39.333 -6.83301 -74.5 -20.5 -105.5s-32.334 -57.333 -56.001 -79
s-51.5 -38.334 -83.5 -50.001s-66.333 -17.5 -103 -17.5c-26 0 -53.333 3 -82 9zM179.003 593c0 8 2.83301 14.833 8.5 20.5s12.5 8.5 20.5 8.5s14.833 -2.83301 20.5 -8.5s8.5 -12.5 8.5 -20.5s-2.83301 -14.833 -8.5 -20.5s-12.5 -8.5 -20.5 -8.5
s-14.833 2.83301 -20.5 8.5s-8.5 12.5 -8.5 20.5z" />
    <glyph glyph-name="seeniso" unicode="&#x633;" horiz-adv-x="1382" arabic-form="isolated" 
d="M586 408l33 -0.000976562v-194c0 -26 4.33301 -50.167 13 -72.5s20.334 -41.833 35.001 -58.5s31.667 -29.667 51 -39s39.666 -14 60.999 -14c28.667 0 52.834 5.16699 72.501 15.5s35.5 24 47.5 41s20.667 36.667 26 59s8 45.5 8 69.5v193h32v-194
c0 -26 4.33301 -50.167 13 -72.5s20.334 -41.833 35.001 -58.5s31.667 -29.667 51 -39s39.666 -14 60.999 -14c28 0 51.667 3.16699 71 9.5s34.833 15.833 46.5 28.5s20 28.334 25 47.001s7.5 40 7.5 64v229h32v-222c0 -29.333 -2.83301 -55.5 -8.5 -78.5
s-15.5 -42.5 -29.5 -58.5s-32.5 -28.167 -55.5 -36.5s-51.5 -12.5 -85.5 -12.5c-16.667 -0 -33.5 2.33301 -50.5 7s-33.333 12.167 -49 22.5s-29.834 24 -42.501 41s-22.667 37.5 -30 61.5c-11.333 -44 -31.833 -77 -61.5 -99s-67.167 -33 -112.5 -33
c-15.333 0 -30.833 2 -46.5 6s-30.834 10.333 -45.501 19s-28.167 20 -40.5 34s-22.833 31 -31.5 51v-75c0 -37.333 -7.16699 -72.166 -21.5 -104.499s-33.833 -60.833 -58.5 -85.5s-53.5 -44 -86.5 -58s-68.167 -21 -105.5 -21s-72.333 7 -105 21
s-61.334 33.333 -86.001 58s-44.167 53.167 -58.5 85.5s-21.5 67.166 -21.5 104.499v274h32v-274c0 -32.667 6.33301 -63.334 19 -92.001s29.834 -53.834 51.501 -75.501s47 -38.667 76 -51s59.833 -18.5 92.5 -18.5s63.667 6.16699 93 18.5s54.833 29.333 76.5 51
s38.834 46.834 51.501 75.501s19 59.334 19 92.001v373z" />
    <glyph glyph-name="sheeniso" unicode="&#x634;" horiz-adv-x="1382" arabic-form="isolated" 
d="M586 408l33 -0.000976562v-194c0 -26 4.33301 -50.167 13 -72.5s20.334 -41.833 35.001 -58.5s31.667 -29.667 51 -39s39.666 -14 60.999 -14c28.667 0 52.834 5.16699 72.501 15.5s35.5 24 47.5 41s20.667 36.667 26 59s8 45.5 8 69.5v193h32v-194
c0 -26 4.33301 -50.167 13 -72.5s20.334 -41.833 35.001 -58.5s31.667 -29.667 51 -39s39.666 -14 60.999 -14c28 0 51.667 3.16699 71 9.5s34.833 15.833 46.5 28.5s20 28.334 25 47.001s7.5 40 7.5 64v229h32v-222c0 -29.333 -2.83301 -55.5 -8.5 -78.5
s-15.5 -42.5 -29.5 -58.5s-32.5 -28.167 -55.5 -36.5s-51.5 -12.5 -85.5 -12.5c-16.667 -0 -33.5 2.33301 -50.5 7s-33.333 12.167 -49 22.5s-29.834 24 -42.501 41s-22.667 37.5 -30 61.5c-11.333 -44 -31.833 -77 -61.5 -99s-67.167 -33 -112.5 -33
c-15.333 0 -30.833 2 -46.5 6s-30.834 10.333 -45.501 19s-28.167 20 -40.5 34s-22.833 31 -31.5 51v-75c0 -37.333 -7.16699 -72.166 -21.5 -104.499s-33.833 -60.833 -58.5 -85.5s-53.5 -44 -86.5 -58s-68.167 -21 -105.5 -21s-72.333 7 -105 21
s-61.334 33.333 -86.001 58s-44.167 53.167 -58.5 85.5s-21.5 67.166 -21.5 104.499v274h32v-274c0 -32.667 6.33301 -63.334 19 -92.001s29.834 -53.834 51.501 -75.501s47 -38.667 76 -51s59.833 -18.5 92.5 -18.5s63.667 6.16699 93 18.5s54.833 29.333 76.5 51
s38.834 46.834 51.501 75.501s19 59.334 19 92.001v373zM920 678.999c0 8 2.83301 14.833 8.5 20.5s12.5 8.5 20.5 8.5s14.833 -2.83301 20.5 -8.5s8.5 -12.5 8.5 -20.5s-2.83301 -14.833 -8.5 -20.5s-12.5 -8.5 -20.5 -8.5s-14.833 2.83301 -20.5 8.5s-8.5 12.5 -8.5 20.5z
M867 592.999c0 8 2.83301 14.833 8.5 20.5s12.5 8.5 20.5 8.5s14.833 -2.83301 20.5 -8.5s8.5 -12.5 8.5 -20.5s-2.83301 -14.833 -8.5 -20.5s-12.5 -8.5 -20.5 -8.5s-14.833 2.83301 -20.5 8.5s-8.5 12.5 -8.5 20.5zM973 592.999c0 8 2.83301 14.833 8.5 20.5
s12.5 8.5 20.5 8.5s14.833 -2.83301 20.5 -8.5s8.5 -12.5 8.5 -20.5s-2.83301 -14.833 -8.5 -20.5s-12.5 -8.5 -20.5 -8.5s-14.833 2.83301 -20.5 8.5s-8.5 12.5 -8.5 20.5z" />
    <glyph glyph-name="sadiso" unicode="&#x635;" horiz-adv-x="1255" arabic-form="isolated" 
d="M985 30c22.667 0 45.0029 4.16406 67.0029 12.4971s41.667 21 59 38s31.166 38.333 41.499 64s15.5 55.834 15.5 90.501c0 28.667 -4.16699 55.5 -12.5 80.5s-20.166 46.5 -35.499 64.5s-34.5 32.167 -57.5 42.5s-48.833 15.5 -77.5 15.5
c-40.667 0 -80.334 -12.333 -119.001 -37s-74.334 -56.667 -107.001 -96s-61.334 -83.166 -86.001 -131.499s-43 -96.166 -55 -143.499h367zM616.003 -0.00292969c-4 -33.333 -14 -64.168 -30 -92.501s-36 -53 -60 -74s-51.5 -37.5 -82.5 -49.5s-63.5 -18 -97.5 -18
c-37.333 0 -72.333 7 -105 21s-61.334 33.333 -86.001 58s-44.167 53.167 -58.5 85.5s-21.5 67.166 -21.5 104.499v274h32v-274c0 -32.667 6.33301 -63.334 19 -92.001s29.834 -53.834 51.501 -75.501s47 -38.667 76 -51s59.833 -18.5 92.5 -18.5s63.667 6.16699 93 18.5
s54.833 29.333 76.5 51s38.834 46.834 51.501 75.501s19 59.334 19 92.001v373h32v-230l-5 -61h3c14 40.667 33.667 81.834 59 123.501s54.166 79.334 86.499 113.001s67.5 61.167 105.5 82.5s76.667 32 116 32c32.667 0 62.5 -6.16699 89.5 -18.5s49.833 -29 68.5 -50
s33.167 -46 43.5 -75s15.5 -59.833 15.5 -92.5c0 -33.333 -5.16699 -64 -15.5 -92s-24.833 -52.5 -43.5 -73.5s-41.5 -37.333 -68.5 -49s-56.833 -17.5 -89.5 -17.5h-367z" />
    <glyph glyph-name="dadiso" unicode="&#x636;" horiz-adv-x="1255" arabic-form="isolated" 
d="M985 30c22.667 0 45.0029 4.16406 67.0029 12.4971s41.667 21 59 38s31.166 38.333 41.499 64s15.5 55.834 15.5 90.501c0 28.667 -4.16699 55.5 -12.5 80.5s-20.166 46.5 -35.499 64.5s-34.5 32.167 -57.5 42.5s-48.833 15.5 -77.5 15.5
c-40.667 0 -80.334 -12.333 -119.001 -37s-74.334 -56.667 -107.001 -96s-61.334 -83.166 -86.001 -131.499s-43 -96.166 -55 -143.499h367zM616.003 -0.00292969c-4 -33.333 -14 -64.168 -30 -92.501s-36 -53 -60 -74s-51.5 -37.5 -82.5 -49.5s-63.5 -18 -97.5 -18
c-37.333 0 -72.333 7 -105 21s-61.334 33.333 -86.001 58s-44.167 53.167 -58.5 85.5s-21.5 67.166 -21.5 104.499v274h32v-274c0 -32.667 6.33301 -63.334 19 -92.001s29.834 -53.834 51.501 -75.501s47 -38.667 76 -51s59.833 -18.5 92.5 -18.5s63.667 6.16699 93 18.5
s54.833 29.333 76.5 51s38.834 46.834 51.501 75.501s19 59.334 19 92.001v373h32v-230l-5 -61h3c14 40.667 33.667 81.834 59 123.501s54.166 79.334 86.499 113.001s67.5 61.167 105.5 82.5s76.667 32 116 32c32.667 0 62.5 -6.16699 89.5 -18.5s49.833 -29 68.5 -50
s33.167 -46 43.5 -75s15.5 -59.833 15.5 -92.5c0 -33.333 -5.16699 -64 -15.5 -92s-24.833 -52.5 -43.5 -73.5s-41.5 -37.333 -68.5 -49s-56.833 -17.5 -89.5 -17.5h-367zM813.003 592.995c0 8 2.83301 14.833 8.5 20.5s12.5 8.5 20.5 8.5s14.833 -2.83301 20.5 -8.5
s8.5 -12.5 8.5 -20.5s-2.83301 -14.833 -8.5 -20.5s-12.5 -8.5 -20.5 -8.5s-14.833 2.83301 -20.5 8.5s-8.5 12.5 -8.5 20.5z" />
    <glyph glyph-name="tahiso" unicode="&#x637;" horiz-adv-x="828" arabic-form="isolated" 
d="M558 30c22.667 0 45.0029 4.16406 67.0029 12.4971s41.667 21 59 38s31.166 38.333 41.499 64s15.5 55.834 15.5 90.501c0 28.667 -4.16699 55.5 -12.5 80.5s-20.166 46.5 -35.499 64.5s-34.5 32.167 -57.5 42.5s-48.833 15.5 -77.5 15.5
c-40.667 0 -80.334 -12.333 -119.001 -37s-74.334 -56.667 -107.001 -96s-61.334 -83.166 -86.001 -131.499s-43 -96.166 -55 -143.499h367zM159.003 29.9971l0.000976562 713.998h32v-566l-5 -61h3c14 40.667 33.667 81.834 59 123.501s54.166 79.334 86.499 113.001
s67.5 61.167 105.5 82.5s76.667 32 116 32c32.667 0 62.5 -6.16699 89.5 -18.5s49.833 -29 68.5 -50s33.167 -46 43.5 -75s15.5 -59.833 15.5 -92.5c0 -33.333 -5.16699 -64 -15.5 -92s-24.833 -52.5 -43.5 -73.5s-41.5 -37.333 -68.5 -49s-56.833 -17.5 -89.5 -17.5h-481
v30h84z" />
    <glyph glyph-name="zadiso" unicode="&#x638;" horiz-adv-x="828" arabic-form="isolated" 
d="M558 30c22.667 0 45.0029 4.16406 67.0029 12.4971s41.667 21 59 38s31.166 38.333 41.499 64s15.5 55.834 15.5 90.501c0 28.667 -4.16699 55.5 -12.5 80.5s-20.166 46.5 -35.499 64.5s-34.5 32.167 -57.5 42.5s-48.833 15.5 -77.5 15.5
c-40.667 0 -80.334 -12.333 -119.001 -37s-74.334 -56.667 -107.001 -96s-61.334 -83.166 -86.001 -131.499s-43 -96.166 -55 -143.499h367zM159.003 29.9971l0.000976562 713.998h32v-566l-5 -61h3c14 40.667 33.667 81.834 59 123.501s54.166 79.334 86.499 113.001
s67.5 61.167 105.5 82.5s76.667 32 116 32c32.667 0 62.5 -6.16699 89.5 -18.5s49.833 -29 68.5 -50s33.167 -46 43.5 -75s15.5 -59.833 15.5 -92.5c0 -33.333 -5.16699 -64 -15.5 -92s-24.833 -52.5 -43.5 -73.5s-41.5 -37.333 -68.5 -49s-56.833 -17.5 -89.5 -17.5h-481
v30h84zM446.004 592.995c0 8 2.83301 14.833 8.5 20.5s12.5 8.5 20.5 8.5s14.833 -2.83301 20.5 -8.5s8.5 -12.5 8.5 -20.5s-2.83301 -14.833 -8.5 -20.5s-12.5 -8.5 -20.5 -8.5s-14.833 2.83301 -20.5 8.5s-8.5 12.5 -8.5 20.5z" />
    <glyph glyph-name="ayniso" unicode="&#x639;" horiz-adv-x="654" arabic-form="isolated" 
d="M278 94c-28.667 0 -54.833 -3.66699 -78.5 -11s-44 -17.833 -61 -31.5s-30.167 -30.5 -39.5 -50.5s-14 -42.333 -14 -67c0 -28.667 5.5 -54.834 16.5 -78.501s25.833 -43.834 44.5 -60.501s40.667 -29.667 66 -39s52.333 -14 81 -14c71.333 0 126 24 164 72l23 -21
c-21.333 -25.333 -48.333 -45.166 -81 -59.499s-68 -21.5 -106 -21.5c-33.333 0 -64.333 5.33301 -93 16s-53.834 25.834 -75.501 45.501s-38.667 43 -51 70s-18.5 57.167 -18.5 90.5c0 30.667 5.5 57.834 16.5 81.501s26.5 43.5 46.5 59.5s43.833 28.167 71.5 36.5
s58.167 12.5 91.5 12.5c-36 19.333 -65.167 46.833 -87.5 82.5s-33.5 76.167 -33.5 121.5c0 33.333 6.33301 64.666 19 93.999s30 55 52 77s47.667 39.333 77 52s60.666 19 93.999 19c40.667 0 78.167 -9.16699 112.5 -27.5s62.5 -42.833 84.5 -73.5l-27 -15
c-19.333 26 -43.666 46.833 -72.999 62.5s-61.666 23.5 -96.999 23.5c-29.333 0 -56.833 -5.5 -82.5 -16.5s-48.167 -26.167 -67.5 -45.5s-34.5 -41.833 -45.5 -67.5s-16.5 -53.167 -16.5 -82.5s5.5 -56.5 16.5 -81.5s26.167 -46.5 45.5 -64.5s41.833 -32.167 67.5 -42.5
s53.167 -15.5 82.5 -15.5h187v-30h-187h-124z" />
    <glyph glyph-name="ghaiso" unicode="&#x63a;" horiz-adv-x="654" arabic-form="isolated" 
d="M278 94c-28.667 0 -54.833 -3.66699 -78.5 -11s-44 -17.833 -61 -31.5s-30.167 -30.5 -39.5 -50.5s-14 -42.333 -14 -67c0 -28.667 5.5 -54.834 16.5 -78.501s25.833 -43.834 44.5 -60.501s40.667 -29.667 66 -39s52.333 -14 81 -14c71.333 0 126 24 164 72l23 -21
c-21.333 -25.333 -48.333 -45.166 -81 -59.499s-68 -21.5 -106 -21.5c-33.333 0 -64.333 5.33301 -93 16s-53.834 25.834 -75.501 45.501s-38.667 43 -51 70s-18.5 57.167 -18.5 90.5c0 30.667 5.5 57.834 16.5 81.501s26.5 43.5 46.5 59.5s43.833 28.167 71.5 36.5
s58.167 12.5 91.5 12.5c-36 19.333 -65.167 46.833 -87.5 82.5s-33.5 76.167 -33.5 121.5c0 33.333 6.33301 64.666 19 93.999s30 55 52 77s47.667 39.333 77 52s60.666 19 93.999 19c40.667 0 78.167 -9.16699 112.5 -27.5s62.5 -42.833 84.5 -73.5l-27 -15
c-19.333 26 -43.666 46.833 -72.999 62.5s-61.666 23.5 -96.999 23.5c-29.333 0 -56.833 -5.5 -82.5 -16.5s-48.167 -26.167 -67.5 -45.5s-34.5 -41.833 -45.5 -67.5s-16.5 -53.167 -16.5 -82.5s5.5 -56.5 16.5 -81.5s26.167 -46.5 45.5 -64.5s41.833 -32.167 67.5 -42.5
s53.167 -15.5 82.5 -15.5h187v-30h-187h-124zM343.001 666c0 8 2.83301 14.833 8.5 20.5s12.5 8.5 20.5 8.5s14.833 -2.83301 20.5 -8.5s8.5 -12.5 8.5 -20.5s-2.83301 -14.833 -8.5 -20.5s-12.5 -8.5 -20.5 -8.5s-14.833 2.83301 -20.5 8.5s-8.5 12.5 -8.5 20.5z" />
    <glyph glyph-name="faiso" unicode="&#x641;" horiz-adv-x="1028" arabic-form="isolated" 
d="M684 0l-381.003 0.000976562c-37.333 0 -70.166 6.33301 -98.499 19s-52.166 30.834 -71.499 54.501s-33.833 52 -43.5 85s-14.5 70.167 -14.5 111.5v138h32v-138c0 -74.667 16 -133.334 48 -176.001s81.333 -64 148 -64h316c-36.667 20 -66.167 48.333 -88.5 85
s-33.5 77.667 -33.5 123c0 32.667 6.16699 63.5 18.5 92.5s29.333 54.333 51 76s46.834 38.667 75.501 51s59.667 18.5 93 18.5c32.667 0 63.5 -6.16699 92.5 -18.5s54.333 -29.333 76 -51s38.667 -47 51 -76s18.5 -59.833 18.5 -92.5c0 -33.333 -6.16699 -64.333 -18.5 -93
s-29.333 -53.834 -51 -75.501s-47 -38.667 -76 -51s-59.833 -18.5 -92.5 -18.5h-10h-41zM526.997 238.001c0 -28 5.16699 -54.333 15.5 -79s24.5 -46.5 42.5 -65.5s39 -34.167 63 -45.5s50 -17.333 78 -18h7h2c28.667 0 55.667 5.5 81 16.5s47.333 25.833 66 44.5
s33.5 40.667 44.5 66s16.5 52.333 16.5 81s-5.5 55.667 -16.5 81s-25.833 47.333 -44.5 66s-40.667 33.5 -66 44.5s-52.333 16.5 -81 16.5s-55.667 -5.5 -81 -16.5s-47.333 -25.833 -66 -44.5s-33.5 -40.667 -44.5 -66s-16.5 -52.333 -16.5 -81zM698.997 593.001
c0 8 2.83301 14.833 8.5 20.5s12.5 8.5 20.5 8.5s14.833 -2.83301 20.5 -8.5s8.5 -12.5 8.5 -20.5s-2.83301 -14.833 -8.5 -20.5s-12.5 -8.5 -20.5 -8.5s-14.833 2.83301 -20.5 8.5s-8.5 12.5 -8.5 20.5z" />
    <glyph glyph-name="kaafiso" unicode="&#x642;" horiz-adv-x="1028" arabic-form="isolated" 
d="M684 0l-381.003 0.000976562c-37.333 0 -70.166 6.33301 -98.499 19s-52.166 30.834 -71.499 54.501s-33.833 52 -43.5 85s-14.5 70.167 -14.5 111.5v138h32v-138c0 -74.667 16 -133.334 48 -176.001s81.333 -64 148 -64h316c-36.667 20 -66.167 48.333 -88.5 85
s-33.5 77.667 -33.5 123c0 32.667 6.16699 63.5 18.5 92.5s29.333 54.333 51 76s46.834 38.667 75.501 51s59.667 18.5 93 18.5c32.667 0 63.5 -6.16699 92.5 -18.5s54.333 -29.333 76 -51s38.667 -47 51 -76s18.5 -59.833 18.5 -92.5c0 -33.333 -6.16699 -64.333 -18.5 -93
s-29.333 -53.834 -51 -75.501s-47 -38.667 -76 -51s-59.833 -18.5 -92.5 -18.5h-10h-41zM526.997 238.001c0 -28 5.16699 -54.333 15.5 -79s24.5 -46.5 42.5 -65.5s39 -34.167 63 -45.5s50 -17.333 78 -18h7h2c28.667 0 55.667 5.5 81 16.5s47.333 25.833 66 44.5
s33.5 40.667 44.5 66s16.5 52.333 16.5 81s-5.5 55.667 -16.5 81s-25.833 47.333 -44.5 66s-40.667 33.5 -66 44.5s-52.333 16.5 -81 16.5s-55.667 -5.5 -81 -16.5s-47.333 -25.833 -66 -44.5s-33.5 -40.667 -44.5 -66s-16.5 -52.333 -16.5 -81zM656.997 592.001
c0 8 2.83301 14.833 8.5 20.5s12.5 8.5 20.5 8.5s14.833 -2.83301 20.5 -8.5s8.5 -12.5 8.5 -20.5s-2.83301 -14.833 -8.5 -20.5s-12.5 -8.5 -20.5 -8.5s-14.833 2.83301 -20.5 8.5s-8.5 12.5 -8.5 20.5zM762.997 592.001c0 8 2.83301 14.833 8.5 20.5s12.5 8.5 20.5 8.5
s14.833 -2.83301 20.5 -8.5s8.5 -12.5 8.5 -20.5s-2.83301 -14.833 -8.5 -20.5s-12.5 -8.5 -20.5 -8.5s-14.833 2.83301 -20.5 8.5s-8.5 12.5 -8.5 20.5z" />
    <glyph glyph-name="kafiso" unicode="&#x643;" horiz-adv-x="786" arabic-form="isolated" 
d="M283 0c-37.333 0 -70.167 6.33301 -98.5 19s-52.166 30.834 -71.499 54.501s-33.833 52 -43.5 85s-14.5 70.167 -14.5 111.5v88h32v-88c0 -74.667 16 -133.334 48 -176.001s81.333 -64 148 -64h241c56.667 0 96.667 12.667 120 38s35 62.333 35 111v565h32v-558
c0 -29.333 -3.33301 -55.5 -10 -78.5s-17.334 -42.5 -32.001 -58.5s-34 -28.167 -58 -36.5s-53 -12.5 -87 -12.5h-241zM474.999 390l-184.999 -0.000976562v30h54c-10.667 14.667 -17.167 30.167 -19.5 46.5s-1 31.333 4 45s13.667 25 26 34s28.166 13.5 47.499 13.5
c15.333 0 28.5 -2.16699 39.5 -6.5s21.167 -11.5 30.5 -21.5l-27 -16c-10 8.66699 -21.333 13.667 -34 15c-14.667 0.666992 -27.667 -3.16602 -39 -11.499s-17 -22.5 -17 -42.5c0 -15.333 6 -28.5 18 -39.5s24.333 -16.5 37 -16.5h65v-30z" />
    <glyph glyph-name="lamiso" unicode="&#x644;" horiz-adv-x="675" arabic-form="isolated" 
d="M586 744h31.999v-619c0 -37.333 -7.16699 -72.166 -21.5 -104.499s-33.833 -60.833 -58.5 -85.5s-53.5 -44 -86.5 -58s-68.167 -21 -105.5 -21s-72.333 7 -105 21s-61.334 33.333 -86.001 58s-44.167 53.167 -58.5 85.5s-21.5 67.166 -21.5 104.499v119h32v-119
c0 -32.667 6.33301 -63.334 19 -92.001s29.834 -53.834 51.501 -75.501s47 -38.667 76 -51s59.833 -18.5 92.5 -18.5s63.667 6.16699 93 18.5s54.833 29.333 76.5 51s38.834 46.834 51.501 75.501s19 59.334 19 92.001v619z" />
    <glyph glyph-name="meemiso" unicode="&#x645;" horiz-adv-x="747" arabic-form="isolated" 
d="M216 175c0 32.667 6.16797 63.499 18.501 92.499s29.333 54.333 51 76s46.834 38.667 75.501 51s59.667 18.5 93 18.5c32.667 0 63.5 -6.16699 92.5 -18.5s54.333 -29.333 76 -51s38.667 -47 51 -76s18.5 -59.833 18.5 -92.5c0 -33.333 -6.16699 -64.333 -18.5 -93
s-29.333 -53.834 -51 -75.501s-47 -38.667 -76 -51s-59.833 -18.5 -92.5 -18.5c-47.333 0 -89.833 12 -127.5 36s-66.167 55.667 -85.5 95c-6.66699 -9.33301 -15.167 -16.833 -25.5 -22.5s-21.5 -10.167 -33.5 -13.5c-30 -7.33301 -53.333 -22.333 -70 -45
s-25 -58.667 -25 -108v-167h-32v163c0 22 1.16699 42.5 3.5 61.5s7.16602 36.167 14.499 51.5s17.833 28.5 31.5 39.5s32.167 20.167 55.5 27.5l21.5 6.5c7.66699 2.33301 14.667 5.5 21 9.5s11.666 8.83301 15.999 14.5s6.83301 12.834 7.5 21.501
c-6.66699 20.667 -10 43.334 -10 68.001zM246.001 174.999c0 -28.667 5.5 -55.667 16.5 -81s25.833 -47.333 44.5 -66s40.667 -33.5 66 -44.5s52.333 -16.5 81 -16.5s55.667 5.5 81 16.5s47.333 25.833 66 44.5s33.5 40.667 44.5 66s16.5 52.333 16.5 81
s-5.5 55.667 -16.5 81s-25.833 47.333 -44.5 66s-40.667 33.5 -66 44.5s-52.333 16.5 -81 16.5s-55.667 -5.5 -81 -16.5s-47.333 -25.833 -66 -44.5s-33.5 -40.667 -44.5 -66s-16.5 -52.333 -16.5 -81z" />
    <glyph glyph-name="nouniso" unicode="&#x646;" horiz-adv-x="693" arabic-form="isolated" 
d="M586 408h31.999v-283c0 -37.333 -7.16699 -72.166 -21.5 -104.499s-33.833 -60.833 -58.5 -85.5s-53.5 -44 -86.5 -58s-68.167 -21 -105.5 -21s-72.333 7 -105 21s-61.334 33.333 -86.001 58s-44.167 53.167 -58.5 85.5s-21.5 67.166 -21.5 104.499v283h32v-283
c0 -32.667 6.33301 -63.334 19 -92.001s29.834 -53.834 51.501 -75.501s47 -38.667 76 -51s59.833 -18.5 92.5 -18.5s63.667 6.16699 93 18.5s54.833 29.333 76.5 51s38.834 46.834 51.501 75.501s19 59.334 19 92.001v283zM321.999 593c0 8 2.83301 14.833 8.5 20.5
s12.5 8.5 20.5 8.5s14.833 -2.83301 20.5 -8.5s8.5 -12.5 8.5 -20.5s-2.83301 -14.833 -8.5 -20.5s-12.5 -8.5 -20.5 -8.5s-14.833 2.83301 -20.5 8.5s-8.5 12.5 -8.5 20.5z" />
    <glyph glyph-name="haini" unicode="&#x647;" horiz-adv-x="639" arabic-form="initial" 
d="M-9 30h153.999c-22 15.333 -39.5 35 -52.5 59s-19.5 50.667 -19.5 80c0 23.333 4.33301 45.333 13 66s20.667 38.667 36 54s33.333 27.333 54 36s42.667 13 66 13s45.333 -4.33301 66 -13s38.667 -20.667 54 -36s27.333 -33.333 36 -54s13 -42.667 13 -66
c0 -29.333 -6.5 -56 -19.5 -80s-30.5 -43.667 -52.5 -59h213v208c0 28.667 -5.5 55.667 -16.5 81s-25.833 47.333 -44.5 66s-40.667 33.5 -66 44.5s-52.333 16.5 -81 16.5h-171v30h171c32.667 0 63.667 -6.16699 93 -18.5s54.833 -29.333 76.5 -51s38.834 -47 51.501 -76
s19 -59.833 19 -92.5v-238h-593v30zM102.999 169c0 -19.333 3.66699 -37.5 11 -54.5s17.166 -31.667 29.499 -44s27 -22.166 44 -29.499s35.167 -11 54.5 -11s37.5 3.66699 54.5 11s31.667 17.166 44 29.499s22.166 27 29.499 44s11 35.167 11 54.5s-3.66699 37.5 -11 54.5
s-17.166 31.667 -29.499 44s-27 22.166 -44 29.499s-35.167 11 -54.5 11s-37.5 -3.66699 -54.5 -11s-31.667 -17.166 -44 -29.499s-22.166 -27 -29.499 -44s-11 -35.167 -11 -54.5z" />
    <glyph glyph-name="wawiso" unicode="&#x648;" horiz-adv-x="550" arabic-form="isolated" 
d="M298 438c-29.333 0 -55.833 -5.16699 -79.5 -15.5s-44 -24.5 -61 -42.5s-30.167 -39.5 -39.5 -64.5s-14 -52.167 -14 -81.5s5.5 -56.5 16.5 -81.5s26.167 -46.5 45.5 -64.5s41.833 -32.167 67.5 -42.5s53.167 -15.5 82.5 -15.5h118v238c0 51.333 -12.333 92.5 -37 123.5
s-57.667 46.5 -99 46.5zM133 -200c11.333 -2.66699 22.832 -4.50293 34.499 -5.50293s23.167 -1.5 34.5 -1.5c32 0 62 5.33301 90 16s52.5 24.834 73.5 42.501s37.667 38 50 61s18.5 46.833 18.5 71.5v16h-118c-33.333 0 -64.666 5.83301 -93.999 17.5s-55 28 -77 49
s-39.333 45.833 -52 74.5s-19 59.667 -19 93s5.5 64.333 16.5 93s26.5 53.5 46.5 74.5s43.833 37.333 71.5 49s58.167 17.5 91.5 17.5c28 0 52.333 -5.66699 73 -17s38 -26.333 52 -45s24.333 -40 31 -64s10 -48.667 10 -74v-201v-74
c0 -35.333 -7.33301 -67.166 -22 -95.499s-34.167 -52.666 -58.5 -72.999s-52.333 -36 -84 -47s-64.5 -16.5 -98.5 -16.5c-12.667 0 -25.667 0.5 -39 1.5s-27.333 3.16699 -42 6.5z" />
    <glyph glyph-name="alefma2souraiso" unicode="&#x649;" horiz-adv-x="854" arabic-form="isolated" 
d="M829 350c-15.333 26.667 -35.6699 47.167 -61.0029 61.5s-51.666 21.5 -78.999 21.5c-20.667 0 -38 -3 -52 -9s-24.333 -14.5 -31 -25.5s-9 -24.333 -7 -40s8.66699 -33.167 20 -52.5l94 -159c14.667 -25.333 21.167 -51.333 19.5 -78s-9.66699 -51.167 -24 -73.5
s-34 -40.666 -59 -54.999s-53.5 -21.5 -85.5 -21.5h-280c-37.333 0 -70.166 6.33301 -98.499 19s-52.166 30.834 -71.499 54.501s-33.833 52 -43.5 85s-14.5 70.167 -14.5 111.5v57h32v-57c0 -74.667 16 -133.334 48 -176.001s81.333 -64 148 -64h283
c26 0 48.833 6.33301 68.5 19s35.167 28.167 46.5 46.5s17.833 37.666 19.5 57.999s-2.5 38.5 -12.5 54.5l-108 177c-11.333 18 -17.5 36.5 -18.5 55.5s3 36.5 12 52.5s23 29 42 39s43.167 15 72.5 15c12.667 0 27 -1.83301 43 -5.5s31.667 -9.66699 47 -18
s30 -18.833 44 -31.5s26 -28 36 -46z" />
    <glyph glyph-name="yaiso" unicode="&#x64a;" horiz-adv-x="854" arabic-form="isolated" 
d="M829 350c-15.333 26.667 -35.6699 47.167 -61.0029 61.5s-51.666 21.5 -78.999 21.5c-20.667 0 -38 -3 -52 -9s-24.333 -14.5 -31 -25.5s-9 -24.333 -7 -40s8.66699 -33.167 20 -52.5l94 -159c14.667 -25.333 21.167 -51.333 19.5 -78s-9.66699 -51.167 -24 -73.5
s-34 -40.666 -59 -54.999s-53.5 -21.5 -85.5 -21.5h-280c-37.333 0 -70.166 6.33301 -98.499 19s-52.166 30.834 -71.499 54.501s-33.833 52 -43.5 85s-14.5 70.167 -14.5 111.5v57h32v-57c0 -74.667 16 -133.334 48 -176.001s81.333 -64 148 -64h283
c26 0 48.833 6.33301 68.5 19s35.167 28.167 46.5 46.5s17.833 37.666 19.5 57.999s-2.5 38.5 -12.5 54.5l-108 177c-11.333 18 -17.5 36.5 -18.5 55.5s3 36.5 12 52.5s23 29 42 39s43.167 15 72.5 15c12.667 0 27 -1.83301 43 -5.5s31.667 -9.66699 47 -18
s30 -18.833 44 -31.5s26 -28 36 -46zM301.996 -177c0 8 2.83301 14.833 8.5 20.5s12.5 8.5 20.5 8.5s14.833 -2.83301 20.5 -8.5s8.5 -12.5 8.5 -20.5s-2.83301 -14.833 -8.5 -20.5s-12.5 -8.5 -20.5 -8.5s-14.833 2.83301 -20.5 8.5s-8.5 12.5 -8.5 20.5zM407.996 -177
c0 8 2.83301 14.833 8.5 20.5s12.5 8.5 20.5 8.5s14.833 -2.83301 20.5 -8.5s8.5 -12.5 8.5 -20.5s-2.83301 -14.833 -8.5 -20.5s-12.5 -8.5 -20.5 -8.5s-14.833 2.83301 -20.5 8.5s-8.5 12.5 -8.5 20.5z" />
    <glyph glyph-name="alefwaslaiso" unicode="&#x671;" horiz-adv-x="208" arabic-form="isolated" 
d="M36 814l21.998 0.00195312c2.66699 9.33301 6.33398 17.666 11.001 24.999s9.66699 14.666 15 21.999c12.667 12.667 29.334 19 50.001 19c14 0 24.667 -3.66699 32 -11c9.33301 -7.33301 14 -20 14 -38v-44h-144v27zM148.998 814.002l0.000976562 14.001
c0 11.333 -1.66699 19.666 -5 24.999c-3.33301 4 -7 6 -11 6c-8 0 -17 -5 -27 -15c-4.66699 -5.33301 -8.33398 -10.5 -11.001 -15.5s-4.66699 -9.83301 -6 -14.5h60zM121.999 0.00292969h-32v744h32v-744z" />
    <glyph glyph-name="piso.001" unicode="&#x67e;" horiz-adv-x="941" arabic-form="isolated" 
d="M495 -205c0 -8 -2.83301 -14.833 -8.5 -20.5s-12.5 -8.5 -20.5 -8.5s-14.833 2.83301 -20.5 8.5s-8.5 12.5 -8.5 20.5s2.83301 14.833 8.5 20.5s12.5 8.5 20.5 8.5s14.833 -2.83301 20.5 -8.5s8.5 -12.5 8.5 -20.5zM548 -119c0 -8 -2.83301 -14.833 -8.5 -20.5
s-12.5 -8.5 -20.5 -8.5s-14.833 2.83301 -20.5 8.5s-8.5 12.5 -8.5 20.5s2.83301 14.833 8.5 20.5s12.5 8.5 20.5 8.5s14.833 -2.83301 20.5 -8.5s8.5 -12.5 8.5 -20.5zM442 -119c0 -8 -2.83301 -14.833 -8.5 -20.5s-12.5 -8.5 -20.5 -8.5s-14.833 2.83301 -20.5 8.5
s-8.5 12.5 -8.5 20.5s2.83301 14.833 8.5 20.5s12.5 8.5 20.5 8.5s14.833 -2.83301 20.5 -8.5s8.5 -12.5 8.5 -20.5zM344 0c-37.333 0 -70.1699 6.33301 -98.5029 19s-52.166 30.834 -71.499 54.501s-33.833 52 -43.5 85s-14.5 70.167 -14.5 111.5v138h32v-138
c0 -74.667 16 -133.334 48 -176.001s81.333 -64 148 -64h274c66.667 0 116 21.333 148 64s48 101.334 48 176.001v138h32v-138c0 -41.333 -4.83301 -78.5 -14.5 -111.5s-24.167 -61.333 -43.5 -85s-43.166 -41.834 -71.499 -54.501s-61.166 -19 -98.499 -19h-274z" />
    <glyph glyph-name="giso" unicode="&#x686;" horiz-adv-x="619" arabic-form="isolated" 
d="M377 -90c0 8 -2.83301 14.833 -8.5 20.5s-12.5 8.5 -20.5 8.5s-14.833 -2.83301 -20.5 -8.5s-8.5 -12.5 -8.5 -20.5s2.83301 -14.833 8.5 -20.5s12.5 -8.5 20.5 -8.5s14.833 2.83301 20.5 8.5s8.5 12.5 8.5 20.5zM430 -4c0 8 -2.83301 14.833 -8.5 20.5
s-12.5 8.5 -20.5 8.5s-14.833 -2.83301 -20.5 -8.5s-8.5 -12.5 -8.5 -20.5s2.83301 -14.833 8.5 -20.5s12.5 -8.5 20.5 -8.5s14.833 2.83301 20.5 8.5s8.5 12.5 8.5 20.5zM324 -4c0 8 -2.83301 14.833 -8.5 20.5s-12.5 8.5 -20.5 8.5s-14.833 -2.83301 -20.5 -8.5
s-8.5 -12.5 -8.5 -20.5s2.83301 -14.833 8.5 -20.5s12.5 -8.5 20.5 -8.5s14.833 2.83301 20.5 8.5s8.5 12.5 8.5 20.5zM316 132c-28.667 0 -55.668 -4.99902 -81.001 -14.999s-47.333 -23.667 -66 -41s-33.5 -38.166 -44.5 -62.499s-16.5 -50.833 -16.5 -79.5
s5.5 -54.834 16.5 -78.501s25.833 -43.834 44.5 -60.501s40.667 -29.667 66 -39s52.333 -14 81 -14c71.333 0 126 24 164 72l23 -21c-21.333 -25.333 -48.333 -45.166 -81 -59.499s-68 -21.5 -106 -21.5c-33.333 0 -64.333 5.33301 -93 16s-53.834 25.834 -75.501 45.501
s-38.667 43 -51 70s-18.5 57.167 -18.5 90.5c0 32.667 6.16699 63 18.5 91s29.333 52.167 51 72.5s46.834 36.166 75.501 47.499s59.667 17 93 17h231v88c0 32.667 -6.16699 63.5 -18.5 92.5s-29.333 54.333 -51 76s-47 38.667 -76 51s-59.833 18.5 -92.5 18.5
c-32 0 -61.833 -5.83301 -89.5 -17.5s-52.167 -27.5 -73.5 -47.5l-10 -10l-20 25l15 14c24 21.333 51.167 38 81.5 50s62.5 18 96.5 18c37.333 0 72.333 -7 105 -21s61.334 -33.333 86.001 -58s44 -53.334 58 -86.001s21 -67.667 21 -105v-118h-263z" />
    <glyph glyph-name="jehiso" unicode="&#x698;" horiz-adv-x="317" arabic-form="isolated" 
d="M-90 -199c22.667 -4.66699 45.6699 -7 69.0029 -7c34.667 0 66.167 5.66699 94.5 17s52.666 26.833 72.999 46.5s36.166 42.834 47.499 69.501s17 55 17 85v396h32v-394c0 -39.333 -6.83301 -74.5 -20.5 -105.5s-32.334 -57.333 -56.001 -79s-51.5 -38.334 -83.5 -50.001
s-66.333 -17.5 -103 -17.5c-26 0 -53.333 3 -82 9zM154.003 637c0 8 2.83301 14.833 8.5 20.5s12.5 8.5 20.5 8.5s14.833 -2.83301 20.5 -8.5s8.5 -12.5 8.5 -20.5s-2.83301 -14.833 -8.5 -20.5s-12.5 -8.5 -20.5 -8.5s-14.833 2.83301 -20.5 8.5s-8.5 12.5 -8.5 20.5z
M101.003 551c0 8 2.83301 14.833 8.5 20.5s12.5 8.5 20.5 8.5s14.833 -2.83301 20.5 -8.5s8.5 -12.5 8.5 -20.5s-2.83301 -14.833 -8.5 -20.5s-12.5 -8.5 -20.5 -8.5s-14.833 2.83301 -20.5 8.5s-8.5 12.5 -8.5 20.5zM207.003 551c0 8 2.83301 14.833 8.5 20.5
s12.5 8.5 20.5 8.5s14.833 -2.83301 20.5 -8.5s8.5 -12.5 8.5 -20.5s-2.83301 -14.833 -8.5 -20.5s-12.5 -8.5 -20.5 -8.5s-14.833 2.83301 -20.5 8.5s-8.5 12.5 -8.5 20.5z" />
    <glyph glyph-name="vehiso" unicode="&#x6a4;" horiz-adv-x="1028" arabic-form="isolated" 
d="M684 0l-381.003 0.000976562c-37.333 0 -70.166 6.33301 -98.499 19s-52.166 30.834 -71.499 54.501s-33.833 52 -43.5 85s-14.5 70.167 -14.5 111.5v138h32v-138c0 -74.667 16 -133.334 48 -176.001s81.333 -64 148 -64h316c-36.667 20 -66.167 48.333 -88.5 85
s-33.5 77.667 -33.5 123c0 32.667 6.16699 63.5 18.5 92.5s29.333 54.333 51 76s46.834 38.667 75.501 51s59.667 18.5 93 18.5c32.667 0 63.5 -6.16699 92.5 -18.5s54.333 -29.333 76 -51s38.667 -47 51 -76s18.5 -59.833 18.5 -92.5c0 -33.333 -6.16699 -64.333 -18.5 -93
s-29.333 -53.834 -51 -75.501s-47 -38.667 -76 -51s-59.833 -18.5 -92.5 -18.5h-10h-41zM526.997 238.001c0 -28 5.16699 -54.333 15.5 -79s24.5 -46.5 42.5 -65.5s39 -34.167 63 -45.5s50 -17.333 78 -18h7h2c28.667 0 55.667 5.5 81 16.5s47.333 25.833 66 44.5
s33.5 40.667 44.5 66s16.5 52.333 16.5 81s-5.5 55.667 -16.5 81s-25.833 47.333 -44.5 66s-40.667 33.5 -66 44.5s-52.333 16.5 -81 16.5s-55.667 -5.5 -81 -16.5s-47.333 -25.833 -66 -44.5s-33.5 -40.667 -44.5 -66s-16.5 -52.333 -16.5 -81zM696.997 679.001
c0 8 2.83301 14.833 8.5 20.5s12.5 8.5 20.5 8.5s14.833 -2.83301 20.5 -8.5s8.5 -12.5 8.5 -20.5s-2.83301 -14.833 -8.5 -20.5s-12.5 -8.5 -20.5 -8.5s-14.833 2.83301 -20.5 8.5s-8.5 12.5 -8.5 20.5zM643.997 593.001c0 8 2.83301 14.833 8.5 20.5s12.5 8.5 20.5 8.5
s14.833 -2.83301 20.5 -8.5s8.5 -12.5 8.5 -20.5s-2.83301 -14.833 -8.5 -20.5s-12.5 -8.5 -20.5 -8.5s-14.833 2.83301 -20.5 8.5s-8.5 12.5 -8.5 20.5zM749.997 593.001c0 8 2.83301 14.833 8.5 20.5s12.5 8.5 20.5 8.5s14.833 -2.83301 20.5 -8.5s8.5 -12.5 8.5 -20.5
s-2.83301 -14.833 -8.5 -20.5s-12.5 -8.5 -20.5 -8.5s-14.833 2.83301 -20.5 8.5s-8.5 12.5 -8.5 20.5z" />
    <glyph glyph-name="kehehiso" unicode="&#x6a9;" horiz-adv-x="790" arabic-form="isolated" 
d="M283 0c-37.333 0 -70.167 6.33301 -98.5 19s-52.166 30.834 -71.499 54.501s-33.833 52 -43.5 85s-14.5 70.167 -14.5 111.5v88h32v-88c0 -74.667 16 -133.334 48 -176.001s81.333 -64 148 -64h241c56.667 0 96.667 12.667 120 38s35 62.333 35 111v565h32v-558
c0 -29.333 -3.33301 -55.5 -10 -78.5s-17.334 -42.5 -32.001 -58.5s-34 -28.167 -58 -36.5s-53 -12.5 -87 -12.5h-241zM487.999 388l-204.002 -0.00292969v34h59c-12 16 -19.167 32.833 -21.5 50.5s-0.666016 34.167 5.00098 49.5s15.334 28 29.001 38s31.167 15 52.5 15
c17.333 0 32 -2.33301 44 -7s23 -12.667 33 -24l-30 -18c-11.333 10 -24 15.667 -38 17c-15.333 0.666992 -29.5 -3.66602 -42.5 -12.999s-19.5 -24.666 -19.5 -45.999c0 -9.33301 1.83301 -17.666 5.5 -24.999s8.5 -13.833 14.5 -19.5s12.667 -10 20 -13
s14.333 -4.5 21 -4.5h72v-34z" />
    <glyph glyph-name="gafiso" unicode="&#x6af;" horiz-adv-x="781" arabic-form="isolated" 
d="M283 0c-37.333 0 -70.167 6.33301 -98.5 19s-52.166 30.834 -71.499 54.501s-33.833 52 -43.5 85s-14.5 70.167 -14.5 111.5v88h32v-88c0 -74.667 16 -133.334 48 -176.001s81.333 -64 148 -64h241c56.667 0 96.667 12.667 120 38s35 62.333 35 111v565h32v-558
c0 -29.333 -3.33301 -55.5 -10 -78.5s-17.334 -42.5 -32.001 -58.5s-34 -28.167 -58 -36.5s-53 -12.5 -87 -12.5h-241zM487.999 388l-204.002 -0.00292969v34h59c-12 16 -19.167 32.833 -21.5 50.5s-0.666016 34.167 5.00098 49.5s15.334 28 29.001 38s31.167 15 52.5 15
c17.333 0 32 -2.33301 44 -7s23 -12.667 33 -24l-30 -18c-11.333 10 -24 15.667 -38 17c-15.333 0.666992 -29.5 -3.66602 -42.5 -12.999s-19.5 -24.666 -19.5 -45.999c0 -9.33301 1.83301 -17.666 5.5 -24.999s8.5 -13.833 14.5 -19.5s12.667 -10 20 -13
s14.333 -4.5 21 -4.5h72v-34z" />
    <glyph glyph-name="farsiyaiso" unicode="&#x6cc;" horiz-adv-x="918" arabic-form="isolated" 
d="M829 350c-15.333 26.667 -35.6699 47.167 -61.0029 61.5s-51.666 21.5 -78.999 21.5c-20.667 0 -38 -3 -52 -9s-24.333 -14.5 -31 -25.5s-9 -24.333 -7 -40s8.66699 -33.167 20 -52.5l94 -159c14.667 -25.333 21.167 -51.333 19.5 -78s-9.66699 -51.167 -24 -73.5
s-34 -40.666 -59 -54.999s-53.5 -21.5 -85.5 -21.5h-280c-37.333 0 -70.166 6.33301 -98.499 19s-52.166 30.834 -71.499 54.501s-33.833 52 -43.5 85s-14.5 70.167 -14.5 111.5v57h32v-57c0 -74.667 16 -133.334 48 -176.001s81.333 -64 148 -64h283
c26 0 48.833 6.33301 68.5 19s35.167 28.167 46.5 46.5s17.833 37.666 19.5 57.999s-2.5 38.5 -12.5 54.5l-108 177c-11.333 18 -17.5 36.5 -18.5 55.5s3 36.5 12 52.5s23 29 42 39s43.167 15 72.5 15c12.667 0 27 -1.83301 43 -5.5s31.667 -9.66699 47 -18
s30 -18.833 44 -31.5s26 -28 36 -46z" />
    <glyph glyph-name="alefwaslafina" unicode="&#x671;" horiz-adv-x="295" arabic-form="final" 
d="M112 179c0 -48.667 11.668 -85.667 35.001 -111s63.333 -38 120 -38h37v-30h-37c-34 0 -63 4.16699 -87 12.5s-43.333 20.5 -58 36.5s-25.334 35.5 -32.001 58.5s-10 49.167 -10 78.5v558h32v-565z" />
    <glyph glyph-name="pfina" unicode="&#x67e;" horiz-adv-x="1000" arabic-form="final" 
d="M487 -205c0 -8 -2.83301 -14.833 -8.5 -20.5s-12.5 -8.5 -20.5 -8.5s-14.833 2.83301 -20.5 8.5s-8.5 12.5 -8.5 20.5s2.83301 14.833 8.5 20.5s12.5 8.5 20.5 8.5s14.833 -2.83301 20.5 -8.5s8.5 -12.5 8.5 -20.5zM540 -119c0 -8 -2.83301 -14.833 -8.5 -20.5
s-12.5 -8.5 -20.5 -8.5s-14.833 2.83301 -20.5 8.5s-8.5 12.5 -8.5 20.5s2.83301 14.833 8.5 20.5s12.5 8.5 20.5 8.5s14.833 -2.83301 20.5 -8.5s8.5 -12.5 8.5 -20.5zM434 -119c0 -8 -2.83301 -14.833 -8.5 -20.5s-12.5 -8.5 -20.5 -8.5s-14.833 2.83301 -20.5 8.5
s-8.5 12.5 -8.5 20.5s2.83301 14.833 8.5 20.5s12.5 8.5 20.5 8.5s14.833 -2.83301 20.5 -8.5s8.5 -12.5 8.5 -20.5zM303 0c-37.333 0 -70.168 6.33301 -98.501 19s-52.166 30.834 -71.499 54.501s-33.833 52 -43.5 85s-14.5 70.167 -14.5 111.5v138h32v-138
c0 -74.667 16 -133.334 48 -176.001s81.333 -64 148 -64h316c28.667 0 52.834 5.16699 72.501 15.5s35.5 24 47.5 41s20.667 36.667 26 59s8 45.5 8 69.5v193h32v-194c0 -26 4.33301 -50.167 13 -72.5s20.334 -41.833 35.001 -58.5s31.667 -29.667 51 -39
s39.666 -14 60.999 -14h44v-30h-41c-16.667 -0 -33.5 2.33301 -50.5 7s-33.333 12.167 -49 22.5s-29.834 24 -42.501 41s-22.667 37.5 -30 61.5c-11.333 -44 -31.833 -77 -61.5 -99s-67.167 -33 -112.5 -33h-319z" />
    <glyph glyph-name="pini" unicode="&#x67e;" horiz-adv-x="306" arabic-form="initial" 
d="M116 -205c0 8 -2.83301 14.833 -8.5 20.5s-12.5 8.5 -20.5 8.5s-14.833 -2.83301 -20.5 -8.5s-8.5 -12.5 -8.5 -20.5s2.83301 -14.833 8.5 -20.5s12.5 -8.5 20.5 -8.5s14.833 2.83301 20.5 8.5s8.5 12.5 8.5 20.5zM169 -119c0 8 -2.83301 14.833 -8.5 20.5
s-12.5 8.5 -20.5 8.5s-14.833 -2.83301 -20.5 -8.5s-8.5 -12.5 -8.5 -20.5s2.83301 -14.833 8.5 -20.5s12.5 -8.5 20.5 -8.5s14.833 2.83301 20.5 8.5s8.5 12.5 8.5 20.5zM63 -119c0 8 -2.83301 14.833 -8.5 20.5s-12.5 8.5 -20.5 8.5s-14.833 -2.83301 -20.5 -8.5
s-8.5 -12.5 -8.5 -20.5s2.83301 -14.833 8.5 -20.5s12.5 -8.5 20.5 -8.5s14.833 2.83301 20.5 8.5s8.5 12.5 8.5 20.5zM194 408h32.001v-222c0 -29.333 -3.33301 -55.5 -10 -78.5s-17.334 -42.5 -32.001 -58.5s-34 -28.167 -58 -36.5s-53 -12.5 -87 -12.5h-48v30h48
c56.667 0 96.667 12.667 120 38s35 62.333 35 111v229z" />
    <glyph glyph-name="pmedi" unicode="&#x67e;" horiz-adv-x="426" arabic-form="medial" 
d="M234 -205c0 8 -2.83301 14.833 -8.5 20.5s-12.5 8.5 -20.5 8.5s-14.833 -2.83301 -20.5 -8.5s-8.5 -12.5 -8.5 -20.5s2.83301 -14.833 8.5 -20.5s12.5 -8.5 20.5 -8.5s14.833 2.83301 20.5 8.5s8.5 12.5 8.5 20.5zM287 -119c0 8 -2.83301 14.833 -8.5 20.5
s-12.5 8.5 -20.5 8.5s-14.833 -2.83301 -20.5 -8.5s-8.5 -12.5 -8.5 -20.5s2.83301 -14.833 8.5 -20.5s12.5 -8.5 20.5 -8.5s14.833 2.83301 20.5 8.5s8.5 12.5 8.5 20.5zM181 -119c0 8 -2.83301 14.833 -8.5 20.5s-12.5 8.5 -20.5 8.5s-14.833 -2.83301 -20.5 -8.5
s-8.5 -12.5 -8.5 -20.5s2.83301 -14.833 8.5 -20.5s12.5 -8.5 20.5 -8.5s14.833 2.83301 20.5 8.5s8.5 12.5 8.5 20.5zM435 30v-30h-41c-16.667 -0 -33.5 2.33301 -50.5 7s-33.333 12.167 -49 22.5s-29.834 24 -42.501 41s-22.667 37.5 -30 61.5
c-11.333 -44 -31.833 -77 -61.5 -99s-67.167 -33 -112.5 -33h-57v30h54c28.667 0 52.834 5.16699 72.501 15.5s35.5 24 47.5 41s20.667 36.667 26 59s8 45.5 8 69.5v193h32v-194c0 -26 4.33301 -50.167 13 -72.5s20.334 -41.833 35.001 -58.5s31.667 -29.667 51 -39
s39.666 -14 60.999 -14h44z" />
    <glyph glyph-name="gfina" unicode="&#x686;" horiz-adv-x="764" arabic-form="final" 
d="M389 -85c0 8 -2.83301 14.833 -8.5 20.5s-12.5 8.5 -20.5 8.5s-14.833 -2.83301 -20.5 -8.5s-8.5 -12.5 -8.5 -20.5s2.83301 -14.833 8.5 -20.5s12.5 -8.5 20.5 -8.5s14.833 2.83301 20.5 8.5s8.5 12.5 8.5 20.5zM442 1c0 8 -2.83301 14.833 -8.5 20.5
s-12.5 8.5 -20.5 8.5s-14.833 -2.83301 -20.5 -8.5s-8.5 -12.5 -8.5 -20.5s2.83301 -14.833 8.5 -20.5s12.5 -8.5 20.5 -8.5s14.833 2.83301 20.5 8.5s8.5 12.5 8.5 20.5zM336 1c0 8 -2.83301 14.833 -8.5 20.5s-12.5 8.5 -20.5 8.5s-14.833 -2.83301 -20.5 -8.5
s-8.5 -12.5 -8.5 -20.5s2.83301 -14.833 8.5 -20.5s12.5 -8.5 20.5 -8.5s14.833 2.83301 20.5 8.5s8.5 12.5 8.5 20.5zM599 184c0 -28 3.83496 -51.833 11.502 -71.5s18.167 -35.5 31.5 -47.5s28.666 -20.833 45.999 -26.5s35.666 -8.5 54.999 -8.5h30v-30h-27
c-16.667 -0 -34 2.33301 -52 7s-35.167 12.167 -51.5 22.5s-30.833 23.833 -43.5 40.5s-21.334 37.334 -26.001 62.001h-237c-28.667 0 -55.667 -5 -81 -15s-47.333 -23.667 -66 -41s-33.5 -38.166 -44.5 -62.499s-16.5 -50.833 -16.5 -79.5s5.5 -54.834 16.5 -78.501
s25.833 -43.834 44.5 -60.501s40.667 -29.667 66 -39s52.333 -14 81 -14c71.333 0 126 24 164 72l23 -21c-21.333 -25.333 -48.333 -45.166 -81 -59.499s-68 -21.5 -106 -21.5c-33.333 0 -64.333 5.33301 -93 16s-53.834 25.834 -75.501 45.501s-38.667 43 -51 70
s-18.5 57.167 -18.5 90.5c0 32.667 6.16699 63 18.5 91s29.333 52.167 51 72.5s46.834 36.166 75.501 47.499s59.667 17 93 17h231v88c0 32.667 -6.16699 63.5 -18.5 92.5s-29.333 54.333 -51 76s-47 38.667 -76 51s-59.833 18.5 -92.5 18.5
c-32 0 -61.833 -5.83301 -89.5 -17.5s-52.167 -27.5 -73.5 -47.5l-10 -10l-20 25l15 14c24 21.333 51.167 38 81.5 50s62.5 18 96.5 18c37.333 0 72.333 -7 105 -21s61.334 -33.333 86.001 -58s44 -53.334 58 -86.001s21 -67.667 21 -105v-66z" />
    <glyph glyph-name="gini" unicode="&#x686;" horiz-adv-x="579" arabic-form="initial" 
d="M296 -205c0 8 -2.83301 14.833 -8.5 20.5s-12.5 8.5 -20.5 8.5s-14.833 -2.83301 -20.5 -8.5s-8.5 -12.5 -8.5 -20.5s2.83301 -14.833 8.5 -20.5s12.5 -8.5 20.5 -8.5s14.833 2.83301 20.5 8.5s8.5 12.5 8.5 20.5zM349 -119c0 8 -2.83301 14.833 -8.5 20.5
s-12.5 8.5 -20.5 8.5s-14.833 -2.83301 -20.5 -8.5s-8.5 -12.5 -8.5 -20.5s2.83301 -14.833 8.5 -20.5s12.5 -8.5 20.5 -8.5s14.833 2.83301 20.5 8.5s8.5 12.5 8.5 20.5zM243 -119c0 8 -2.83301 14.833 -8.5 20.5s-12.5 8.5 -20.5 8.5s-14.833 -2.83301 -20.5 -8.5
s-8.5 -12.5 -8.5 -20.5s2.83301 -14.833 8.5 -20.5s12.5 -8.5 20.5 -8.5s14.833 2.83301 20.5 8.5s8.5 12.5 8.5 20.5zM482 209c0 32.667 -6.16797 63.501 -18.501 92.501s-29.333 54.333 -51 76s-47 38.667 -76 51s-59.833 18.5 -92.5 18.5
c-32 0 -61.833 -5.83301 -89.5 -17.5s-52.167 -27.5 -73.5 -47.5l-10 -10l-20 25l15 14c24 21.333 51.167 38 81.5 50s62.5 18 96.5 18c37.333 0 72.333 -7 105 -21s61.334 -33.333 86.001 -58s44 -53.334 58 -86.001s21 -67.667 21 -105v-209h-523v30h491v179z" />
    <glyph glyph-name="gmedi" unicode="&#x686;" horiz-adv-x="558" arabic-form="medial" 
d="M296 -205c0 8 -2.83301 14.833 -8.5 20.5s-12.5 8.5 -20.5 8.5s-14.833 -2.83301 -20.5 -8.5s-8.5 -12.5 -8.5 -20.5s2.83301 -14.833 8.5 -20.5s12.5 -8.5 20.5 -8.5s14.833 2.83301 20.5 8.5s8.5 12.5 8.5 20.5zM349 -119c0 8 -2.83301 14.833 -8.5 20.5
s-12.5 8.5 -20.5 8.5s-14.833 -2.83301 -20.5 -8.5s-8.5 -12.5 -8.5 -20.5s2.83301 -14.833 8.5 -20.5s12.5 -8.5 20.5 -8.5s14.833 2.83301 20.5 8.5s8.5 12.5 8.5 20.5zM243 -119c0 8 -2.83301 14.833 -8.5 20.5s-12.5 8.5 -20.5 8.5s-14.833 -2.83301 -20.5 -8.5
s-8.5 -12.5 -8.5 -20.5s2.83301 -14.833 8.5 -20.5s12.5 -8.5 20.5 -8.5s14.833 2.83301 20.5 8.5s8.5 12.5 8.5 20.5zM514 30l52.999 0.000976562v-30h-576v30h491v179c0 32.667 -6.16699 63.5 -18.5 92.5s-29.333 54.333 -51 76s-47 38.667 -76 51
s-59.833 18.5 -92.5 18.5c-32 0 -61.833 -5.83301 -89.5 -17.5s-52.167 -27.5 -73.5 -47.5l-10 -10l-20 25l15 14c24 21.333 51.167 38 81.5 50s62.5 18 96.5 18c37.333 0 72.333 -7 105 -21s61.334 -33.333 86.001 -58s44 -53.334 58 -86.001s21 -67.667 21 -105v-179z" />
    <glyph glyph-name="jehfina" unicode="&#x698;" horiz-adv-x="413" arabic-form="final" 
d="M257 14c0 -39.333 -6.83105 -74.499 -20.498 -105.499s-32.334 -57.333 -56.001 -79s-51.5 -38.334 -83.5 -50.001s-66.333 -17.5 -103 -17.5c-26 0 -53.333 3 -82 9l12 30c22.667 -4.66699 45.667 -7 69 -7c34.667 0 66.167 5.66699 94.5 17s52.666 26.833 72.999 46.5
s36.166 42.834 47.499 69.501s17 55 17 85v396h32v-249c0 -17.333 4.33301 -33.833 13 -49.5s19.834 -29.334 33.501 -41.001s28.667 -21 45 -28s32.5 -10.5 48.5 -10.5h25v-30h-22c-26.667 0 -52.5 6 -77.5 18s-46.833 33 -65.5 63v-67zM196.002 679.001
c0 8 2.83301 14.833 8.5 20.5s12.5 8.5 20.5 8.5s14.833 -2.83301 20.5 -8.5s8.5 -12.5 8.5 -20.5s-2.83301 -14.833 -8.5 -20.5s-12.5 -8.5 -20.5 -8.5s-14.833 2.83301 -20.5 8.5s-8.5 12.5 -8.5 20.5zM143.002 593.001c0 8 2.83301 14.833 8.5 20.5s12.5 8.5 20.5 8.5
s14.833 -2.83301 20.5 -8.5s8.5 -12.5 8.5 -20.5s-2.83301 -14.833 -8.5 -20.5s-12.5 -8.5 -20.5 -8.5s-14.833 2.83301 -20.5 8.5s-8.5 12.5 -8.5 20.5zM249.002 593.001c0 8 2.83301 14.833 8.5 20.5s12.5 8.5 20.5 8.5s14.833 -2.83301 20.5 -8.5s8.5 -12.5 8.5 -20.5
s-2.83301 -14.833 -8.5 -20.5s-12.5 -8.5 -20.5 -8.5s-14.833 2.83301 -20.5 8.5s-8.5 12.5 -8.5 20.5z" />
    <glyph glyph-name="kehehfina" unicode="&#x6a9;" horiz-adv-x="895" arabic-form="final" 
d="M283 0c-37.333 0 -70.168 6.33301 -98.501 19s-52.166 30.834 -71.499 54.501s-33.833 52 -43.5 85s-14.5 70.167 -14.5 111.5v88h32v-88c0 -74.667 16 -133.334 48 -176.001s81.333 -64 148 -64h231c28.667 0 52.834 5.16699 72.501 15.5s35.5 24 47.5 41
s20.667 36.667 26 59s8 45.5 8 69.5v529h32v-530c0 -26 4.33301 -50.167 13 -72.5s20.334 -41.833 35.001 -58.5s31.667 -29.667 51 -39s39.666 -14 60.999 -14h44v-30h-41c-16.667 -0 -33.5 2.33301 -50.5 7s-33.333 12.167 -49 22.5s-29.834 24 -42.501 41
s-22.667 37.5 -30 61.5c-11.333 -44 -31.833 -77 -61.5 -99s-67.167 -33 -112.5 -33h-234z" />
    <glyph glyph-name="kafini" unicode="&#x6a9;" horiz-adv-x="616" arabic-form="initial" 
d="M86 391l343.003 352.998h43l-342 -350h169c32 0 62.667 -5.5 92 -16.5s55.166 -26.667 77.499 -47s40 -45.333 53 -75s19.5 -63.167 19.5 -100.5v-155h-550v30h518v125c0 30.667 -5.33301 58.834 -16 84.501s-25.334 47.834 -44.001 66.501s-40.334 33 -65.001 43
s-51 15 -79 15h-219v27z" />
    <glyph glyph-name="kafmedi" unicode="&#x6a9;" horiz-adv-x="614" arabic-form="medial" 
d="M623 0l-631.997 -0.00195312v30h518v125c0 30.667 -5.33301 58.834 -16 84.501s-25.334 47.834 -44.001 66.501s-40.334 33 -65.001 43s-51 15 -79 15h-219v27l343 353h43l-342 -350h169c32 0 62.667 -5.5 92 -16.5s55.166 -26.667 77.499 -47s40 -45.333 53 -75
s19.5 -63.167 19.5 -100.5v-125h82v-30z" />
    <glyph glyph-name="gaffina" unicode="&#x6af;" horiz-adv-x="895" arabic-form="final" 
d="M283 0c-37.333 0 -70.168 6.33301 -98.501 19s-52.166 30.834 -71.499 54.501s-33.833 52 -43.5 85s-14.5 70.167 -14.5 111.5v88h32v-88c0 -74.667 16 -133.334 48 -176.001s81.333 -64 148 -64h231c28.667 0 52.834 5.16699 72.501 15.5s35.5 24 47.5 41
s20.667 36.667 26 59s8 45.5 8 69.5v529h32v-530c0 -26 4.33301 -50.167 13 -72.5s20.334 -41.833 35.001 -58.5s31.667 -29.667 51 -39s39.666 -14 60.999 -14h44v-30h-41c-16.667 -0 -33.5 2.33301 -50.5 7s-33.333 12.167 -49 22.5s-29.834 24 -42.501 41
s-22.667 37.5 -30 61.5c-11.333 -44 -31.833 -77 -61.5 -99s-67.167 -33 -112.5 -33h-234z" />
    <glyph glyph-name="gafini" unicode="&#x6af;" horiz-adv-x="616" arabic-form="initial" 
d="M86 391l343.003 352.998h43l-342 -350h169c32 0 62.667 -5.5 92 -16.5s55.166 -26.667 77.499 -47s40 -45.333 53 -75s19.5 -63.167 19.5 -100.5v-155h-550v30h518v125c0 30.667 -5.33301 58.834 -16 84.501s-25.334 47.834 -44.001 66.501s-40.334 33 -65.001 43
s-51 15 -79 15h-219v27z" />
    <glyph glyph-name="gafmedi" unicode="&#x6af;" horiz-adv-x="614" arabic-form="medial" 
d="M623 0l-631.997 -0.00195312v30h518v125c0 30.667 -5.33301 58.834 -16 84.501s-25.334 47.834 -44.001 66.501s-40.334 33 -65.001 43s-51 15 -79 15h-219v27l343 353h43l-342 -350h169c32 0 62.667 -5.5 92 -16.5s55.166 -26.667 77.499 -47s40 -45.333 53 -75
s19.5 -63.167 19.5 -100.5v-125h82v-30z" />
    <glyph glyph-name="kirsehini" unicode="&#x649;" horiz-adv-x="306" arabic-form="initial" 
d="M194 408h32.001v-222c0 -29.333 -3.33301 -55.5 -10 -78.5s-17.334 -42.5 -32.001 -58.5s-34 -28.167 -58 -36.5s-53 -12.5 -87 -12.5h-48v30h48c56.667 0 96.667 12.667 120 38s35 62.333 35 111v229z" />
    <glyph glyph-name="kirsehmedi" unicode="&#x649;" horiz-adv-x="426" arabic-form="medial" 
d="M435 30v-30h-41c-16.667 -0 -33.5 2.33301 -50.5 7s-33.333 12.167 -49 22.5s-29.834 24 -42.501 41s-22.667 37.5 -30 61.5c-11.333 -44 -31.833 -77 -61.5 -99s-67.167 -33 -112.5 -33h-57v30h54c28.667 0 52.834 5.16699 72.501 15.5s35.5 24 47.5 41
s20.667 36.667 26 59s8 45.5 8 69.5v193h32v-194c0 -26 4.33301 -50.167 13 -72.5s20.334 -41.833 35.001 -58.5s31.667 -29.667 51 -39s39.666 -14 60.999 -14h44z" />
    <glyph glyph-name="alefma2sourafina" unicode="&#x6cc;" horiz-adv-x="1100" arabic-form="final" 
d="M713 147c14.667 -25.333 21.1641 -51.332 19.4971 -77.999s-9.66699 -51.167 -24 -73.5s-34 -40.666 -59 -54.999s-53.5 -21.5 -85.5 -21.5h-280c-37.333 0 -70.166 6.33301 -98.499 19s-52.166 30.834 -71.499 54.501s-33.833 52 -43.5 85s-14.5 70.167 -14.5 111.5v57
h32v-57c0 -74.667 16 -133.334 48 -176.001s81.333 -64 148 -64h283c26 0 48.833 6.33301 68.5 19s35.167 28.167 46.5 46.5s17.833 37.666 19.5 57.999s-2.5 38.5 -12.5 54.5l-108 177c-11.333 18 -17.5 36.5 -18.5 55.5s3 36.5 12 52.5s23 29 42 39s43.167 15 72.5 15
c17.333 0 32.333 -2.66699 45 -8s24 -12.666 34 -21.999s19.167 -20.5 27.5 -33.5s16.833 -27.167 25.5 -42.5l106 -191c8 -14 17.333 -29.167 28 -45.5s22.5 -31.333 35.5 -45s26.667 -25.167 41 -34.5s28.833 -14 43.5 -14h34v-30h-33c-14 0 -28.333 3.16699 -43 9.5
s-29 14.666 -43 24.999s-27.167 22.5 -39.5 36.5s-22.833 29 -31.5 45c-2 4 -5.33301 9.83301 -10 17.5l-21.5 37l-38.5 68.5l-61 111l-15.5 27.5c-5.66699 9.66699 -12.5 18.667 -20.5 27s-17.167 15.166 -27.5 20.499s-22.166 8 -35.499 8c-20.667 0 -38 -3 -52 -9
s-24.333 -14.5 -31 -25.5s-9 -24.333 -7 -40s8.66699 -33.167 20 -52.5z" />
    <glyph glyph-name="yaini" unicode="&#x6cc;" horiz-adv-x="306" arabic-form="initial" 
d="M194 408h32.001v-222c0 -29.333 -3.33301 -55.5 -10 -78.5s-17.334 -42.5 -32.001 -58.5s-34 -28.167 -58 -36.5s-53 -12.5 -87 -12.5h-48v30h48c56.667 0 96.667 12.667 120 38s35 62.333 35 111v229zM16.001 -115c0 8 2.83301 14.833 8.5 20.5s12.5 8.5 20.5 8.5
s14.833 -2.83301 20.5 -8.5s8.5 -12.5 8.5 -20.5s-2.83301 -14.833 -8.5 -20.5s-12.5 -8.5 -20.5 -8.5s-14.833 2.83301 -20.5 8.5s-8.5 12.5 -8.5 20.5zM122.001 -115c0 8 2.83301 14.833 8.5 20.5s12.5 8.5 20.5 8.5s14.833 -2.83301 20.5 -8.5s8.5 -12.5 8.5 -20.5
s-2.83301 -14.833 -8.5 -20.5s-12.5 -8.5 -20.5 -8.5s-14.833 2.83301 -20.5 8.5s-8.5 12.5 -8.5 20.5z" />
    <glyph glyph-name="yamedi" unicode="&#x6cc;" horiz-adv-x="426" arabic-form="medial" 
d="M435 30v-30h-41c-16.667 -0 -33.5 2.33301 -50.5 7s-33.333 12.167 -49 22.5s-29.834 24 -42.501 41s-22.667 37.5 -30 61.5c-11.333 -44 -31.833 -77 -61.5 -99s-67.167 -33 -112.5 -33h-57v30h54c28.667 0 52.834 5.16699 72.501 15.5s35.5 24 47.5 41
s20.667 36.667 26 59s8 45.5 8 69.5v193h32v-194c0 -26 4.33301 -50.167 13 -72.5s20.334 -41.833 35.001 -58.5s31.667 -29.667 51 -39s39.666 -14 60.999 -14h44zM130 -115c0 8 2.83301 14.833 8.5 20.5s12.5 8.5 20.5 8.5s14.833 -2.83301 20.5 -8.5s8.5 -12.5 8.5 -20.5
s-2.83301 -14.833 -8.5 -20.5s-12.5 -8.5 -20.5 -8.5s-14.833 2.83301 -20.5 8.5s-8.5 12.5 -8.5 20.5zM236 -115c0 8 2.83301 14.833 8.5 20.5s12.5 8.5 20.5 8.5s14.833 -2.83301 20.5 -8.5s8.5 -12.5 8.5 -20.5s-2.83301 -14.833 -8.5 -20.5s-12.5 -8.5 -20.5 -8.5
s-14.833 2.83301 -20.5 8.5s-8.5 12.5 -8.5 20.5z" />
    <glyph glyph-name="alefmaddaabovefina" unicode="&#x622;" horiz-adv-x="295" arabic-form="final" 
d="M112 179c0 -48.667 11.668 -85.667 35.001 -111s63.333 -38 120 -38h37v-30h-37c-34 0 -63 4.16699 -87 12.5s-43.333 20.5 -58 36.5s-25.334 35.5 -32.001 58.5s-10 49.167 -10 78.5v558h32v-565zM255.001 759v28.998c0 15.333 -1.33301 27.5 -4 36.5
s-6.16699 15.667 -10.5 20s-9.5 7 -15.5 8s-12.333 1.5 -19 1.5c-12 0 -26.833 -4 -44.5 -12l-56.5 -26.5c-20 -9.66699 -39.667 -18.5 -59 -26.5s-36.333 -12 -51 -12c-25.333 0 -44.833 8 -58.5 24s-20.5 39 -20.5 69v34h31v-34c0 -24 4 -40.667 12 -50s20.333 -14 37 -14
c11.333 0 25.833 3.83301 43.5 11.5s36.167 16.334 55.5 26.001s38.833 18.334 58.5 26.001s37.167 11.5 52.5 11.5c29.333 0 49.833 -8 61.5 -24s17.5 -39 17.5 -69v-29h-30z" />
    <glyph glyph-name="alefhamzaabovefina" unicode="&#x623;" horiz-adv-x="295" arabic-form="final" 
d="M112 179c0 -48.667 11.668 -85.667 35.001 -111s63.333 -38 120 -38h37v-30h-37c-34 0 -63 4.16699 -87 12.5s-43.333 20.5 -58 36.5s-25.334 35.5 -32.001 58.5s-10 49.167 -10 78.5v558h32v-565zM183.001 798l-168.001 0.00195312v28h49c-10 12.667 -16 26.5 -18 41.5
s-0.666992 28.667 4 41s12.667 22.666 24 30.999s25.666 12.5 42.999 12.5c26.667 0 48 -8.33301 64 -25l-25 -15c-9.33301 8 -19.666 12.667 -30.999 14c-13.333 0.666992 -25.166 -2.83301 -35.499 -10.5s-15.5 -20.5 -15.5 -38.5c0 -14.667 5.5 -26.834 16.5 -36.501
s22.167 -14.5 33.5 -14.5h59v-28z" />
    <glyph glyph-name="wawhamzafina" unicode="&#x624;" horiz-adv-x="571" arabic-form="final" 
d="M298 438c-29.333 0 -55.833 -5.16699 -79.5 -15.5s-44 -24.5 -61 -42.5s-30.167 -39.5 -39.5 -64.5s-14 -52.167 -14 -81.5s5.5 -56.5 16.5 -81.5s26.167 -46.5 45.5 -64.5s41.833 -32.167 67.5 -42.5s53.167 -15.5 82.5 -15.5h118v238c0 51.333 -12.333 92.5 -37 123.5
s-57.667 46.5 -99 46.5zM466 0l-0.000976562 -7.00293c0 -35.333 -7.33301 -67.166 -22 -95.499s-34.167 -52.666 -58.5 -72.999s-52.333 -36 -84 -47s-64.5 -16.5 -98.5 -16.5c-12.667 0 -25.667 0.5 -39 1.5s-27.333 3.16699 -42 6.5l11 31
c11.333 -2.66699 22.833 -4.5 34.5 -5.5s23.167 -1.5 34.5 -1.5c32 0 62 5.33301 90 16s52.5 24.834 73.5 42.501s37.667 38 50 61s18.5 46.833 18.5 71.5v16h-118c-33.333 -0 -64.666 5.83301 -93.999 17.5s-55 28 -77 49s-39.333 45.833 -52 74.5s-19 59.667 -19 93
s5.5 64.333 16.5 93s26.5 53.5 46.5 74.5s43.833 37.333 71.5 49s58.167 17.5 91.5 17.5c28 0 52.333 -5.66699 73 -17s38 -26.333 52 -45s24.333 -40 31 -64s10 -48.667 10 -74v-201v-37h114v-30h-114zM363.565 544.731l-185 -0.000976562v30.7285h53.959
c-11.0117 13.9004 -17.6191 29.0811 -19.8213 45.542c-2.20215 16.4619 -0.734375 31.46 4.4043 44.9941c5.13965 13.5342 13.9492 24.874 26.4287 34.0195c12.4805 9.14551 28.2646 13.7178 47.3516 13.7178c29.3652 0 52.8574 -9.14551 70.4766 -27.4355
l-27.5303 -16.4609c-10.2773 8.7793 -21.6562 13.9004 -34.1367 15.3633c-14.6826 0.731445 -27.7139 -3.10938 -39.0938 -11.5225c-11.3789 -8.41309 -17.0684 -22.4961 -17.0684 -42.249c0 -16.0957 6.05664 -29.4473 18.1699 -40.0557s24.4102 -15.9121 36.8896 -15.9121
h64.9707v-30.7285z" />
    <glyph glyph-name="alefhamzabelowfina" unicode="&#x625;" horiz-adv-x="295" arabic-form="final" 
d="M112 179c0 -48.667 11.668 -85.667 35.001 -111s63.333 -38 120 -38h37v-30h-37c-34 0 -63 4.16699 -87 12.5s-43.333 20.5 -58 36.5s-25.334 35.5 -32.001 58.5s-10 49.167 -10 78.5v558h32v-565zM212.001 -217l-168.001 0.00195312v28h49c-10 12.667 -16 26.5 -18 41.5
s-0.666992 28.667 4 41s12.667 22.666 24 30.999s25.666 12.5 42.999 12.5c26.667 0 48 -8.33301 64 -25l-25 -15c-9.33301 8 -19.666 12.667 -30.999 14c-13.333 0.666992 -25.166 -2.83301 -35.499 -10.5s-15.5 -20.5 -15.5 -38.5c0 -14.667 5.5 -26.834 16.5 -36.501
s22.167 -14.5 33.5 -14.5h59v-28z" />
    <glyph glyph-name="hamzakirsehfina" unicode="&#x626;" horiz-adv-x="1100" arabic-form="final" 
d="M713 147c14.667 -25.333 21.1641 -51.332 19.4971 -77.999s-9.66699 -51.167 -24 -73.5s-34 -40.666 -59 -54.999s-53.5 -21.5 -85.5 -21.5h-280c-37.333 0 -70.166 6.33301 -98.499 19s-52.166 30.834 -71.499 54.501s-33.833 52 -43.5 85s-14.5 70.167 -14.5 111.5v57
h32v-57c0 -74.667 16 -133.334 48 -176.001s81.333 -64 148 -64h283c26 0 48.833 6.33301 68.5 19s35.167 28.167 46.5 46.5s17.833 37.666 19.5 57.999s-2.5 38.5 -12.5 54.5l-108 177c-11.333 18 -17.5 36.5 -18.5 55.5s3 36.5 12 52.5s23 29 42 39s43.167 15 72.5 15
c17.333 0 32.333 -2.66699 45 -8s24 -12.666 34 -21.999s19.167 -20.5 27.5 -33.5s16.833 -27.167 25.5 -42.5l106 -191c8 -14 17.333 -29.167 28 -45.5s22.5 -31.333 35.5 -45s26.667 -25.167 41 -34.5s28.833 -14 43.5 -14h34v-30h-33c-14 0 -28.333 3.16699 -43 9.5
s-29 14.666 -43 24.999s-27.167 22.5 -39.5 36.5s-22.833 29 -31.5 45c-2 4 -5.33301 9.83301 -10 17.5l-21.5 37l-38.5 68.5l-61 111l-15.5 27.5c-5.66699 9.66699 -12.5 18.667 -20.5 27s-17.167 15.166 -27.5 20.499s-22.166 8 -35.499 8c-20.667 0 -38 -3 -52 -9
s-24.333 -14.5 -31 -25.5s-9 -24.333 -7 -40s8.66699 -33.167 20 -52.5zM337.563 305.735l-185 -0.000976562v30.7285h53.959c-11.0117 13.9004 -17.6191 29.0811 -19.8213 45.542c-2.20215 16.4619 -0.734375 31.46 4.4043 44.9941
c5.13965 13.5342 13.9492 24.874 26.4287 34.0195c12.4805 9.14551 28.2646 13.7178 47.3516 13.7178c29.3652 0 52.8574 -9.14551 70.4766 -27.4355l-27.5303 -16.4609c-10.2773 8.7793 -21.6562 13.9004 -34.1367 15.3633
c-14.6826 0.731445 -27.7139 -3.10938 -39.0938 -11.5225c-11.3789 -8.41309 -17.0684 -22.4961 -17.0684 -42.249c0 -16.0957 6.05664 -29.4473 18.1699 -40.0557s24.4102 -15.9121 36.8896 -15.9121h64.9707v-30.7285z" />
    <glyph glyph-name="hamzakirsehini" unicode="&#x626;" horiz-adv-x="306" arabic-form="initial" 
d="M194 408h32.001v-222c0 -29.333 -3.33301 -55.5 -10 -78.5s-17.334 -42.5 -32.001 -58.5s-34 -28.167 -58 -36.5s-53 -12.5 -87 -12.5h-48v30h48c56.667 0 96.667 12.667 120 38s35 62.333 35 111v229zM210.567 513.734l-185 -0.000976562v30.7285h53.959
c-11.0117 13.9004 -17.6191 29.0811 -19.8213 45.542c-2.20215 16.4619 -0.734375 31.46 4.4043 44.9941c5.13965 13.5342 13.9492 24.874 26.4287 34.0195c12.4805 9.14551 28.2646 13.7178 47.3516 13.7178c29.3652 0 52.8574 -9.14551 70.4766 -27.4355
l-27.5303 -16.4609c-10.2773 8.7793 -21.6562 13.9004 -34.1367 15.3633c-14.6826 0.731445 -27.7139 -3.10938 -39.0938 -11.5225c-11.3789 -8.41309 -17.0684 -22.4961 -17.0684 -42.249c0 -16.0957 6.05664 -29.4473 18.1699 -40.0557s24.4102 -15.9121 36.8896 -15.9121
h64.9707v-30.7285z" />
    <glyph glyph-name="hamzakirsehmedi" unicode="&#x626;" horiz-adv-x="426" arabic-form="medial" 
d="M435 30v-30h-41c-16.667 -0 -33.5 2.33301 -50.5 7s-33.333 12.167 -49 22.5s-29.834 24 -42.501 41s-22.667 37.5 -30 61.5c-11.333 -44 -31.833 -77 -61.5 -99s-67.167 -33 -112.5 -33h-57v30h54c28.667 0 52.834 5.16699 72.501 15.5s35.5 24 47.5 41
s20.667 36.667 26 59s8 45.5 8 69.5v193h32v-194c0 -26 4.33301 -50.167 13 -72.5s20.334 -41.833 35.001 -58.5s31.667 -29.667 51 -39s39.666 -14 60.999 -14h44zM293.566 513.734l-185 -0.000976562v30.7285h53.959c-11.0117 13.9004 -17.6191 29.0811 -19.8213 45.542
c-2.20215 16.4619 -0.734375 31.46 4.4043 44.9941c5.13965 13.5342 13.9492 24.874 26.4287 34.0195c12.4805 9.14551 28.2646 13.7178 47.3516 13.7178c29.3652 0 52.8574 -9.14551 70.4766 -27.4355l-27.5303 -16.4609
c-10.2773 8.7793 -21.6562 13.9004 -34.1367 15.3633c-14.6826 0.731445 -27.7139 -3.10938 -39.0938 -11.5225c-11.3789 -8.41309 -17.0684 -22.4961 -17.0684 -42.249c0 -16.0957 6.05664 -29.4473 18.1699 -40.0557s24.4102 -15.9121 36.8896 -15.9121h64.9707v-30.7285z
" />
    <glyph glyph-name="aleffina" unicode="&#x627;" horiz-adv-x="295" arabic-form="final" 
d="M112 179c0 -48.667 11.668 -85.667 35.001 -111s63.333 -38 120 -38h37v-30h-37c-34 0 -63 4.16699 -87 12.5s-43.333 20.5 -58 36.5s-25.334 35.5 -32.001 58.5s-10 49.167 -10 78.5v558h32v-565z" />
    <glyph glyph-name="behfina" unicode="&#x628;" horiz-adv-x="1000" arabic-form="final" 
d="M303 0c-37.333 0 -70.168 6.33301 -98.501 19s-52.166 30.834 -71.499 54.501s-33.833 52 -43.5 85s-14.5 70.167 -14.5 111.5v138h32v-138c0 -74.667 16 -133.334 48 -176.001s81.333 -64 148 -64h316c28.667 0 52.834 5.16699 72.501 15.5s35.5 24 47.5 41
s20.667 36.667 26 59s8 45.5 8 69.5v193h32v-194c0 -26 4.33301 -50.167 13 -72.5s20.334 -41.833 35.001 -58.5s31.667 -29.667 51 -39s39.666 -14 60.999 -14h44v-30h-41c-16.667 -0 -33.5 2.33301 -50.5 7s-33.333 12.167 -49 22.5s-29.834 24 -42.501 41
s-22.667 37.5 -30 61.5c-11.333 -44 -31.833 -77 -61.5 -99s-67.167 -33 -112.5 -33h-319zM398.998 -114c0 8 2.83301 14.833 8.5 20.5s12.5 8.5 20.5 8.5s14.833 -2.83301 20.5 -8.5s8.5 -12.5 8.5 -20.5s-2.83301 -14.833 -8.5 -20.5s-12.5 -8.5 -20.5 -8.5
s-14.833 2.83301 -20.5 8.5s-8.5 12.5 -8.5 20.5z" />
    <glyph glyph-name="behini" unicode="&#x628;" horiz-adv-x="306" arabic-form="initial" 
d="M194 408h32.001v-222c0 -29.333 -3.33301 -55.5 -10 -78.5s-17.334 -42.5 -32.001 -58.5s-34 -28.167 -58 -36.5s-53 -12.5 -87 -12.5h-48v30h48c56.667 0 96.667 12.667 120 38s35 62.333 35 111v229zM58.001 -114c0 8 2.83301 14.833 8.5 20.5s12.5 8.5 20.5 8.5
s14.833 -2.83301 20.5 -8.5s8.5 -12.5 8.5 -20.5s-2.83301 -14.833 -8.5 -20.5s-12.5 -8.5 -20.5 -8.5s-14.833 2.83301 -20.5 8.5s-8.5 12.5 -8.5 20.5z" />
    <glyph glyph-name="behmedi" unicode="&#x628;" horiz-adv-x="426" arabic-form="medial" 
d="M435 30v-30h-41c-16.667 -0 -33.5 2.33301 -50.5 7s-33.333 12.167 -49 22.5s-29.834 24 -42.501 41s-22.667 37.5 -30 61.5c-11.333 -44 -31.833 -77 -61.5 -99s-67.167 -33 -112.5 -33h-57v30h54c28.667 0 52.834 5.16699 72.501 15.5s35.5 24 47.5 41
s20.667 36.667 26 59s8 45.5 8 69.5v193h32v-194c0 -26 4.33301 -50.167 13 -72.5s20.334 -41.833 35.001 -58.5s31.667 -29.667 51 -39s39.666 -14 60.999 -14h44zM183 -114c0 8 2.83301 14.833 8.5 20.5s12.5 8.5 20.5 8.5s14.833 -2.83301 20.5 -8.5s8.5 -12.5 8.5 -20.5
s-2.83301 -14.833 -8.5 -20.5s-12.5 -8.5 -20.5 -8.5s-14.833 2.83301 -20.5 8.5s-8.5 12.5 -8.5 20.5z" />
    <glyph glyph-name="tehmarboutafina" unicode="&#x629;" horiz-adv-x="715" arabic-form="final" 
d="M510 140c-9.33301 -20.667 -21.334 -39.6699 -36.001 -57.0029s-31.334 -32.166 -50.001 -44.499s-39.167 -21.833 -61.5 -28.5s-45.5 -10 -69.5 -10c-33.333 0 -64.333 6.16699 -93 18.5s-53.834 29.333 -75.501 51s-38.667 46.834 -51 75.501s-18.5 59.667 -18.5 93
c0 32.667 6.16699 63.5 18.5 92.5s29.333 54.333 51 76s46.834 38.667 75.501 51s59.667 18.5 93 18.5c32.667 0 63.5 -6.16699 92.5 -18.5s54.333 -29.333 76 -51s38.667 -47 51 -76s18.5 -59.833 18.5 -92.5v-12c0 -4 -0.333008 -7.66699 -1 -11
c0 -26 4.33301 -50.333 13 -73s20.334 -42.167 35.001 -58.5s31.834 -29.333 51.501 -39s40.167 -14.5 61.5 -14.5h30v-30h-27c-16.667 0 -34.167 2.66699 -52.5 8s-36 13.833 -53 25.5s-32.5 26.334 -46.5 44.001s-24.667 38.5 -32 62.5zM84.999 237.997
c0 -28.667 5.5 -55.667 16.5 -81s25.833 -47.333 44.5 -66s40.667 -33.5 66 -44.5s52.333 -16.5 81 -16.5s55.667 5.5 81 16.5s47.333 25.833 66 44.5s33.5 40.667 44.5 66s16.5 52.333 16.5 81s-5.5 55.667 -16.5 81s-25.833 47.333 -44.5 66s-40.667 33.5 -66 44.5
s-52.333 16.5 -81 16.5s-55.667 -5.5 -81 -16.5s-47.333 -25.833 -66 -44.5s-33.5 -40.667 -44.5 -66s-16.5 -52.333 -16.5 -81zM202.999 591.997c0 8 2.83301 14.833 8.5 20.5s12.5 8.5 20.5 8.5s14.833 -2.83301 20.5 -8.5s8.5 -12.5 8.5 -20.5
s-2.83301 -14.833 -8.5 -20.5s-12.5 -8.5 -20.5 -8.5s-14.833 2.83301 -20.5 8.5s-8.5 12.5 -8.5 20.5zM308.999 591.997c0 8 2.83301 14.833 8.5 20.5s12.5 8.5 20.5 8.5s14.833 -2.83301 20.5 -8.5s8.5 -12.5 8.5 -20.5s-2.83301 -14.833 -8.5 -20.5
s-12.5 -8.5 -20.5 -8.5s-14.833 2.83301 -20.5 8.5s-8.5 12.5 -8.5 20.5z" />
    <glyph glyph-name="tafina" unicode="&#x62a;" horiz-adv-x="1000" arabic-form="final" 
d="M303 0c-37.333 0 -70.168 6.33301 -98.501 19s-52.166 30.834 -71.499 54.501s-33.833 52 -43.5 85s-14.5 70.167 -14.5 111.5v138h32v-138c0 -74.667 16 -133.334 48 -176.001s81.333 -64 148 -64h316c28.667 0 52.834 5.16699 72.501 15.5s35.5 24 47.5 41
s20.667 36.667 26 59s8 45.5 8 69.5v193h32v-194c0 -26 4.33301 -50.167 13 -72.5s20.334 -41.833 35.001 -58.5s31.667 -29.667 51 -39s39.666 -14 60.999 -14h44v-30h-41c-16.667 -0 -33.5 2.33301 -50.5 7s-33.333 12.167 -49 22.5s-29.834 24 -42.501 41
s-22.667 37.5 -30 61.5c-11.333 -44 -31.833 -77 -61.5 -99s-67.167 -33 -112.5 -33h-319zM362.998 592c0 8 2.83301 14.833 8.5 20.5s12.5 8.5 20.5 8.5s14.833 -2.83301 20.5 -8.5s8.5 -12.5 8.5 -20.5s-2.83301 -14.833 -8.5 -20.5s-12.5 -8.5 -20.5 -8.5
s-14.833 2.83301 -20.5 8.5s-8.5 12.5 -8.5 20.5zM468.998 592c0 8 2.83301 14.833 8.5 20.5s12.5 8.5 20.5 8.5s14.833 -2.83301 20.5 -8.5s8.5 -12.5 8.5 -20.5s-2.83301 -14.833 -8.5 -20.5s-12.5 -8.5 -20.5 -8.5s-14.833 2.83301 -20.5 8.5s-8.5 12.5 -8.5 20.5z" />
    <glyph glyph-name="taini" unicode="&#x62a;" horiz-adv-x="306" arabic-form="initial" 
d="M194 408h32.001v-222c0 -29.333 -3.33301 -55.5 -10 -78.5s-17.334 -42.5 -32.001 -58.5s-34 -28.167 -58 -36.5s-53 -12.5 -87 -12.5h-48v30h48c56.667 0 96.667 12.667 120 38s35 62.333 35 111v229zM33.001 592c0 8 2.83301 14.833 8.5 20.5s12.5 8.5 20.5 8.5
s14.833 -2.83301 20.5 -8.5s8.5 -12.5 8.5 -20.5s-2.83301 -14.833 -8.5 -20.5s-12.5 -8.5 -20.5 -8.5s-14.833 2.83301 -20.5 8.5s-8.5 12.5 -8.5 20.5zM139.001 592c0 8 2.83301 14.833 8.5 20.5s12.5 8.5 20.5 8.5s14.833 -2.83301 20.5 -8.5s8.5 -12.5 8.5 -20.5
s-2.83301 -14.833 -8.5 -20.5s-12.5 -8.5 -20.5 -8.5s-14.833 2.83301 -20.5 8.5s-8.5 12.5 -8.5 20.5z" />
    <glyph glyph-name="tamedi" unicode="&#x62a;" horiz-adv-x="426" arabic-form="medial" 
d="M435 30v-30h-41c-16.667 -0 -33.5 2.33301 -50.5 7s-33.333 12.167 -49 22.5s-29.834 24 -42.501 41s-22.667 37.5 -30 61.5c-11.333 -44 -31.833 -77 -61.5 -99s-67.167 -33 -112.5 -33h-57v30h54c28.667 0 52.834 5.16699 72.501 15.5s35.5 24 47.5 41
s20.667 36.667 26 59s8 45.5 8 69.5v193h32v-194c0 -26 4.33301 -50.167 13 -72.5s20.334 -41.833 35.001 -58.5s31.667 -29.667 51 -39s39.666 -14 60.999 -14h44zM129 592c0 8 2.83301 14.833 8.5 20.5s12.5 8.5 20.5 8.5s14.833 -2.83301 20.5 -8.5s8.5 -12.5 8.5 -20.5
s-2.83301 -14.833 -8.5 -20.5s-12.5 -8.5 -20.5 -8.5s-14.833 2.83301 -20.5 8.5s-8.5 12.5 -8.5 20.5zM235 592c0 8 2.83301 14.833 8.5 20.5s12.5 8.5 20.5 8.5s14.833 -2.83301 20.5 -8.5s8.5 -12.5 8.5 -20.5s-2.83301 -14.833 -8.5 -20.5s-12.5 -8.5 -20.5 -8.5
s-14.833 2.83301 -20.5 8.5s-8.5 12.5 -8.5 20.5z" />
    <glyph glyph-name="thafina" unicode="&#x62b;" horiz-adv-x="1000" arabic-form="final" 
d="M303 0c-37.333 0 -70.168 6.33301 -98.501 19s-52.166 30.834 -71.499 54.501s-33.833 52 -43.5 85s-14.5 70.167 -14.5 111.5v138h32v-138c0 -74.667 16 -133.334 48 -176.001s81.333 -64 148 -64h316c28.667 0 52.834 5.16699 72.501 15.5s35.5 24 47.5 41
s20.667 36.667 26 59s8 45.5 8 69.5v193h32v-194c0 -26 4.33301 -50.167 13 -72.5s20.334 -41.833 35.001 -58.5s31.667 -29.667 51 -39s39.666 -14 60.999 -14h44v-30h-41c-16.667 -0 -33.5 2.33301 -50.5 7s-33.333 12.167 -49 22.5s-29.834 24 -42.501 41
s-22.667 37.5 -30 61.5c-11.333 -44 -31.833 -77 -61.5 -99s-67.167 -33 -112.5 -33h-319zM412.998 679c0 8 2.83301 14.833 8.5 20.5s12.5 8.5 20.5 8.5s14.833 -2.83301 20.5 -8.5s8.5 -12.5 8.5 -20.5s-2.83301 -14.833 -8.5 -20.5s-12.5 -8.5 -20.5 -8.5
s-14.833 2.83301 -20.5 8.5s-8.5 12.5 -8.5 20.5zM359.998 593c0 8 2.83301 14.833 8.5 20.5s12.5 8.5 20.5 8.5s14.833 -2.83301 20.5 -8.5s8.5 -12.5 8.5 -20.5s-2.83301 -14.833 -8.5 -20.5s-12.5 -8.5 -20.5 -8.5s-14.833 2.83301 -20.5 8.5s-8.5 12.5 -8.5 20.5z
M465.998 593c0 8 2.83301 14.833 8.5 20.5s12.5 8.5 20.5 8.5s14.833 -2.83301 20.5 -8.5s8.5 -12.5 8.5 -20.5s-2.83301 -14.833 -8.5 -20.5s-12.5 -8.5 -20.5 -8.5s-14.833 2.83301 -20.5 8.5s-8.5 12.5 -8.5 20.5z" />
    <glyph glyph-name="thaini" unicode="&#x62b;" horiz-adv-x="306" arabic-form="initial" 
d="M194 408h32.001v-222c0 -29.333 -3.33301 -55.5 -10 -78.5s-17.334 -42.5 -32.001 -58.5s-34 -28.167 -58 -36.5s-53 -12.5 -87 -12.5h-48v30h48c56.667 0 96.667 12.667 120 38s35 62.333 35 111v229zM85.001 679c0 8 2.83301 14.833 8.5 20.5s12.5 8.5 20.5 8.5
s14.833 -2.83301 20.5 -8.5s8.5 -12.5 8.5 -20.5s-2.83301 -14.833 -8.5 -20.5s-12.5 -8.5 -20.5 -8.5s-14.833 2.83301 -20.5 8.5s-8.5 12.5 -8.5 20.5zM32.001 593c0 8 2.83301 14.833 8.5 20.5s12.5 8.5 20.5 8.5s14.833 -2.83301 20.5 -8.5s8.5 -12.5 8.5 -20.5
s-2.83301 -14.833 -8.5 -20.5s-12.5 -8.5 -20.5 -8.5s-14.833 2.83301 -20.5 8.5s-8.5 12.5 -8.5 20.5zM138.001 593c0 8 2.83301 14.833 8.5 20.5s12.5 8.5 20.5 8.5s14.833 -2.83301 20.5 -8.5s8.5 -12.5 8.5 -20.5s-2.83301 -14.833 -8.5 -20.5s-12.5 -8.5 -20.5 -8.5
s-14.833 2.83301 -20.5 8.5s-8.5 12.5 -8.5 20.5z" />
    <glyph glyph-name="thamedi" unicode="&#x62b;" horiz-adv-x="426" arabic-form="medial" 
d="M435 30v-30h-41c-16.667 -0 -33.5 2.33301 -50.5 7s-33.333 12.167 -49 22.5s-29.834 24 -42.501 41s-22.667 37.5 -30 61.5c-11.333 -44 -31.833 -77 -61.5 -99s-67.167 -33 -112.5 -33h-57v30h54c28.667 0 52.834 5.16699 72.501 15.5s35.5 24 47.5 41
s20.667 36.667 26 59s8 45.5 8 69.5v193h32v-194c0 -26 4.33301 -50.167 13 -72.5s20.334 -41.833 35.001 -58.5s31.667 -29.667 51 -39s39.666 -14 60.999 -14h44zM188 679c0 8 2.83301 14.833 8.5 20.5s12.5 8.5 20.5 8.5s14.833 -2.83301 20.5 -8.5s8.5 -12.5 8.5 -20.5
s-2.83301 -14.833 -8.5 -20.5s-12.5 -8.5 -20.5 -8.5s-14.833 2.83301 -20.5 8.5s-8.5 12.5 -8.5 20.5zM135 593c0 8 2.83301 14.833 8.5 20.5s12.5 8.5 20.5 8.5s14.833 -2.83301 20.5 -8.5s8.5 -12.5 8.5 -20.5s-2.83301 -14.833 -8.5 -20.5s-12.5 -8.5 -20.5 -8.5
s-14.833 2.83301 -20.5 8.5s-8.5 12.5 -8.5 20.5zM241 593c0 8 2.83301 14.833 8.5 20.5s12.5 8.5 20.5 8.5s14.833 -2.83301 20.5 -8.5s8.5 -12.5 8.5 -20.5s-2.83301 -14.833 -8.5 -20.5s-12.5 -8.5 -20.5 -8.5s-14.833 2.83301 -20.5 8.5s-8.5 12.5 -8.5 20.5z" />
    <glyph glyph-name="jeemfina" unicode="&#x62c;" horiz-adv-x="764" arabic-form="final" 
d="M599 184c0 -28 3.83496 -51.833 11.502 -71.5s18.167 -35.5 31.5 -47.5s28.666 -20.833 45.999 -26.5s35.666 -8.5 54.999 -8.5h30v-30h-27c-16.667 -0 -34 2.33301 -52 7s-35.167 12.167 -51.5 22.5s-30.833 23.833 -43.5 40.5s-21.334 37.334 -26.001 62.001h-237
c-28.667 0 -55.667 -5 -81 -15s-47.333 -23.667 -66 -41s-33.5 -38.166 -44.5 -62.499s-16.5 -50.833 -16.5 -79.5s5.5 -54.834 16.5 -78.501s25.833 -43.834 44.5 -60.501s40.667 -29.667 66 -39s52.333 -14 81 -14c71.333 0 126 24 164 72l23 -21
c-21.333 -25.333 -48.333 -45.166 -81 -59.499s-68 -21.5 -106 -21.5c-33.333 0 -64.333 5.33301 -93 16s-53.834 25.834 -75.501 45.501s-38.667 43 -51 70s-18.5 57.167 -18.5 90.5c0 32.667 6.16699 63 18.5 91s29.333 52.167 51 72.5s46.834 36.166 75.501 47.499
s59.667 17 93 17h231v88c0 32.667 -6.16699 63.5 -18.5 92.5s-29.333 54.333 -51 76s-47 38.667 -76 51s-59.833 18.5 -92.5 18.5c-32 0 -61.833 -5.83301 -89.5 -17.5s-52.167 -27.5 -73.5 -47.5l-10 -10l-20 25l15 14c24 21.333 51.167 38 81.5 50s62.5 18 96.5 18
c37.333 0 72.333 -7 105 -21s61.334 -33.333 86.001 -58s44 -53.334 58 -86.001s21 -67.667 21 -105v-66zM340.002 -43c0 8 2.83301 14.833 8.5 20.5s12.5 8.5 20.5 8.5s14.833 -2.83301 20.5 -8.5s8.5 -12.5 8.5 -20.5s-2.83301 -14.833 -8.5 -20.5s-12.5 -8.5 -20.5 -8.5
s-14.833 2.83301 -20.5 8.5s-8.5 12.5 -8.5 20.5z" />
    <glyph glyph-name="jeemini" unicode="&#x62c;" horiz-adv-x="579" arabic-form="initial" 
d="M482 209c0 32.667 -6.16797 63.501 -18.501 92.501s-29.333 54.333 -51 76s-47 38.667 -76 51s-59.833 18.5 -92.5 18.5c-32 0 -61.833 -5.83301 -89.5 -17.5s-52.167 -27.5 -73.5 -47.5l-10 -10l-20 25l15 14c24 21.333 51.167 38 81.5 50s62.5 18 96.5 18
c37.333 0 72.333 -7 105 -21s61.334 -33.333 86.001 -58s44 -53.334 58 -86.001s21 -67.667 21 -105v-209h-523v30h491v179zM226.999 -113.999c0 8 2.83301 14.833 8.5 20.5s12.5 8.5 20.5 8.5s14.833 -2.83301 20.5 -8.5s8.5 -12.5 8.5 -20.5s-2.83301 -14.833 -8.5 -20.5
s-12.5 -8.5 -20.5 -8.5s-14.833 2.83301 -20.5 8.5s-8.5 12.5 -8.5 20.5z" />
    <glyph glyph-name="jeemmedi" unicode="&#x62c;" horiz-adv-x="558" arabic-form="medial" 
d="M514 30l52.999 0.000976562v-30h-576v30h491v179c0 32.667 -6.16699 63.5 -18.5 92.5s-29.333 54.333 -51 76s-47 38.667 -76 51s-59.833 18.5 -92.5 18.5c-32 0 -61.833 -5.83301 -89.5 -17.5s-52.167 -27.5 -73.5 -47.5l-10 -10l-20 25l15 14
c24 21.333 51.167 38 81.5 50s62.5 18 96.5 18c37.333 0 72.333 -7 105 -21s61.334 -33.333 86.001 -58s44 -53.334 58 -86.001s21 -67.667 21 -105v-179zM226.999 -113.999c0 8 2.83301 14.833 8.5 20.5s12.5 8.5 20.5 8.5s14.833 -2.83301 20.5 -8.5s8.5 -12.5 8.5 -20.5
s-2.83301 -14.833 -8.5 -20.5s-12.5 -8.5 -20.5 -8.5s-14.833 2.83301 -20.5 8.5s-8.5 12.5 -8.5 20.5z" />
    <glyph glyph-name="haafina" unicode="&#x62d;" horiz-adv-x="764" arabic-form="final" 
d="M599 184c0 -28 3.83496 -51.833 11.502 -71.5s18.167 -35.5 31.5 -47.5s28.666 -20.833 45.999 -26.5s35.666 -8.5 54.999 -8.5h30v-30h-27c-16.667 -0 -34 2.33301 -52 7s-35.167 12.167 -51.5 22.5s-30.833 23.833 -43.5 40.5s-21.334 37.334 -26.001 62.001h-237
c-28.667 0 -55.667 -5 -81 -15s-47.333 -23.667 -66 -41s-33.5 -38.166 -44.5 -62.499s-16.5 -50.833 -16.5 -79.5s5.5 -54.834 16.5 -78.501s25.833 -43.834 44.5 -60.501s40.667 -29.667 66 -39s52.333 -14 81 -14c71.333 0 126 24 164 72l23 -21
c-21.333 -25.333 -48.333 -45.166 -81 -59.499s-68 -21.5 -106 -21.5c-33.333 0 -64.333 5.33301 -93 16s-53.834 25.834 -75.501 45.501s-38.667 43 -51 70s-18.5 57.167 -18.5 90.5c0 32.667 6.16699 63 18.5 91s29.333 52.167 51 72.5s46.834 36.166 75.501 47.499
s59.667 17 93 17h231v88c0 32.667 -6.16699 63.5 -18.5 92.5s-29.333 54.333 -51 76s-47 38.667 -76 51s-59.833 18.5 -92.5 18.5c-32 0 -61.833 -5.83301 -89.5 -17.5s-52.167 -27.5 -73.5 -47.5l-10 -10l-20 25l15 14c24 21.333 51.167 38 81.5 50s62.5 18 96.5 18
c37.333 0 72.333 -7 105 -21s61.334 -33.333 86.001 -58s44 -53.334 58 -86.001s21 -67.667 21 -105v-66z" />
    <glyph glyph-name="haaini" unicode="&#x62d;" horiz-adv-x="579" arabic-form="initial" 
d="M482 209c0 32.667 -6.16797 63.501 -18.501 92.501s-29.333 54.333 -51 76s-47 38.667 -76 51s-59.833 18.5 -92.5 18.5c-32 0 -61.833 -5.83301 -89.5 -17.5s-52.167 -27.5 -73.5 -47.5l-10 -10l-20 25l15 14c24 21.333 51.167 38 81.5 50s62.5 18 96.5 18
c37.333 0 72.333 -7 105 -21s61.334 -33.333 86.001 -58s44 -53.334 58 -86.001s21 -67.667 21 -105v-209h-523v30h491v179z" />
    <glyph glyph-name="haamedi" unicode="&#x62d;" horiz-adv-x="558" arabic-form="medial" 
d="M514 30l52.999 0.000976562v-30h-576v30h491v179c0 32.667 -6.16699 63.5 -18.5 92.5s-29.333 54.333 -51 76s-47 38.667 -76 51s-59.833 18.5 -92.5 18.5c-32 0 -61.833 -5.83301 -89.5 -17.5s-52.167 -27.5 -73.5 -47.5l-10 -10l-20 25l15 14
c24 21.333 51.167 38 81.5 50s62.5 18 96.5 18c37.333 0 72.333 -7 105 -21s61.334 -33.333 86.001 -58s44 -53.334 58 -86.001s21 -67.667 21 -105v-179z" />
    <glyph glyph-name="khafina" unicode="&#x62e;" horiz-adv-x="764" arabic-form="final" 
d="M599 184c0 -28 3.83496 -51.833 11.502 -71.5s18.167 -35.5 31.5 -47.5s28.666 -20.833 45.999 -26.5s35.666 -8.5 54.999 -8.5h30v-30h-27c-16.667 -0 -34 2.33301 -52 7s-35.167 12.167 -51.5 22.5s-30.833 23.833 -43.5 40.5s-21.334 37.334 -26.001 62.001h-237
c-28.667 0 -55.667 -5 -81 -15s-47.333 -23.667 -66 -41s-33.5 -38.166 -44.5 -62.499s-16.5 -50.833 -16.5 -79.5s5.5 -54.834 16.5 -78.501s25.833 -43.834 44.5 -60.501s40.667 -29.667 66 -39s52.333 -14 81 -14c71.333 0 126 24 164 72l23 -21
c-21.333 -25.333 -48.333 -45.166 -81 -59.499s-68 -21.5 -106 -21.5c-33.333 0 -64.333 5.33301 -93 16s-53.834 25.834 -75.501 45.501s-38.667 43 -51 70s-18.5 57.167 -18.5 90.5c0 32.667 6.16699 63 18.5 91s29.333 52.167 51 72.5s46.834 36.166 75.501 47.499
s59.667 17 93 17h231v88c0 32.667 -6.16699 63.5 -18.5 92.5s-29.333 54.333 -51 76s-47 38.667 -76 51s-59.833 18.5 -92.5 18.5c-32 0 -61.833 -5.83301 -89.5 -17.5s-52.167 -27.5 -73.5 -47.5l-10 -10l-20 25l15 14c24 21.333 51.167 38 81.5 50s62.5 18 96.5 18
c37.333 0 72.333 -7 105 -21s61.334 -33.333 86.001 -58s44 -53.334 58 -86.001s21 -67.667 21 -105v-66zM314.002 640c0 8 2.83301 14.833 8.5 20.5s12.5 8.5 20.5 8.5s14.833 -2.83301 20.5 -8.5s8.5 -12.5 8.5 -20.5s-2.83301 -14.833 -8.5 -20.5s-12.5 -8.5 -20.5 -8.5
s-14.833 2.83301 -20.5 8.5s-8.5 12.5 -8.5 20.5z" />
    <glyph glyph-name="khaini" unicode="&#x62e;" horiz-adv-x="579" arabic-form="initial" 
d="M482 209c0 32.667 -6.16797 63.501 -18.501 92.501s-29.333 54.333 -51 76s-47 38.667 -76 51s-59.833 18.5 -92.5 18.5c-32 0 -61.833 -5.83301 -89.5 -17.5s-52.167 -27.5 -73.5 -47.5l-10 -10l-20 25l15 14c24 21.333 51.167 38 81.5 50s62.5 18 96.5 18
c37.333 0 72.333 -7 105 -21s61.334 -33.333 86.001 -58s44 -53.334 58 -86.001s21 -67.667 21 -105v-209h-523v30h491v179zM202.999 593.001c0 8 2.83301 14.833 8.5 20.5s12.5 8.5 20.5 8.5s14.833 -2.83301 20.5 -8.5s8.5 -12.5 8.5 -20.5s-2.83301 -14.833 -8.5 -20.5
s-12.5 -8.5 -20.5 -8.5s-14.833 2.83301 -20.5 8.5s-8.5 12.5 -8.5 20.5z" />
    <glyph glyph-name="khamedi" unicode="&#x62e;" horiz-adv-x="558" arabic-form="medial" 
d="M514 30l52.999 0.000976562v-30h-576v30h491v179c0 32.667 -6.16699 63.5 -18.5 92.5s-29.333 54.333 -51 76s-47 38.667 -76 51s-59.833 18.5 -92.5 18.5c-32 0 -61.833 -5.83301 -89.5 -17.5s-52.167 -27.5 -73.5 -47.5l-10 -10l-20 25l15 14
c24 21.333 51.167 38 81.5 50s62.5 18 96.5 18c37.333 0 72.333 -7 105 -21s61.334 -33.333 86.001 -58s44 -53.334 58 -86.001s21 -67.667 21 -105v-179zM230.999 593.001c0 8 2.83301 14.833 8.5 20.5s12.5 8.5 20.5 8.5s14.833 -2.83301 20.5 -8.5s8.5 -12.5 8.5 -20.5
s-2.83301 -14.833 -8.5 -20.5s-12.5 -8.5 -20.5 -8.5s-14.833 2.83301 -20.5 8.5s-8.5 12.5 -8.5 20.5z" />
    <glyph glyph-name="dalfina" unicode="&#x62f;" horiz-adv-x="571" arabic-form="final" 
d="M580 30l-0.000976562 -30h-495v30h380v179c0 32.667 -6.16699 63 -18.5 91s-29.333 52 -51 72s-47 35.667 -76 47s-59.833 17 -92.5 17h-17v32h17c37.333 0 72.333 -6.5 105 -19.5s61.334 -31 86.001 -54s44 -50.333 58 -82s21 -66.167 21 -103.5v-179h83z" />
    <glyph glyph-name="zalfina" unicode="&#x630;" horiz-adv-x="571" arabic-form="final" 
d="M580 30l-0.000976562 -30h-495v30h380v179c0 32.667 -6.16699 63 -18.5 91s-29.333 52 -51 72s-47 35.667 -76 47s-59.833 17 -92.5 17h-17v32h17c37.333 0 72.333 -6.5 105 -19.5s61.334 -31 86.001 -54s44 -50.333 58 -82s21 -66.167 21 -103.5v-179h83zM204.999 593
c0 8 2.83301 14.833 8.5 20.5s12.5 8.5 20.5 8.5s14.833 -2.83301 20.5 -8.5s8.5 -12.5 8.5 -20.5s-2.83301 -14.833 -8.5 -20.5s-12.5 -8.5 -20.5 -8.5s-14.833 2.83301 -20.5 8.5s-8.5 12.5 -8.5 20.5z" />
    <glyph glyph-name="rafina" unicode="&#x631;" horiz-adv-x="413" arabic-form="final" 
d="M257 14c0 -39.333 -6.83105 -74.499 -20.498 -105.499s-32.334 -57.333 -56.001 -79s-51.5 -38.334 -83.5 -50.001s-66.333 -17.5 -103 -17.5c-26 0 -53.333 3 -82 9l12 30c22.667 -4.66699 45.667 -7 69 -7c34.667 0 66.167 5.66699 94.5 17s52.666 26.833 72.999 46.5
s36.166 42.834 47.499 69.501s17 55 17 85v396h32v-249c0 -17.333 4.33301 -33.833 13 -49.5s19.834 -29.334 33.501 -41.001s28.667 -21 45 -28s32.5 -10.5 48.5 -10.5h25v-30h-22c-26.667 0 -52.5 6 -77.5 18s-46.833 33 -65.5 63v-67z" />
    <glyph glyph-name="zafina" unicode="&#x632;" horiz-adv-x="413" arabic-form="final" 
d="M257 14c0 -39.333 -6.83105 -74.499 -20.498 -105.499s-32.334 -57.333 -56.001 -79s-51.5 -38.334 -83.5 -50.001s-66.333 -17.5 -103 -17.5c-26 0 -53.333 3 -82 9l12 30c22.667 -4.66699 45.667 -7 69 -7c34.667 0 66.167 5.66699 94.5 17s52.666 26.833 72.999 46.5
s36.166 42.834 47.499 69.501s17 55 17 85v396h32v-249c0 -17.333 4.33301 -33.833 13 -49.5s19.834 -29.334 33.501 -41.001s28.667 -21 45 -28s32.5 -10.5 48.5 -10.5h25v-30h-22c-26.667 0 -52.5 6 -77.5 18s-46.833 33 -65.5 63v-67zM213.002 593.001
c0 8 2.83301 14.833 8.5 20.5s12.5 8.5 20.5 8.5s14.833 -2.83301 20.5 -8.5s8.5 -12.5 8.5 -20.5s-2.83301 -14.833 -8.5 -20.5s-12.5 -8.5 -20.5 -8.5s-14.833 2.83301 -20.5 8.5s-8.5 12.5 -8.5 20.5z" />
    </font>
</defs>
</svg>
